<svg width="32" height="30" viewBox="0 0 32 30" fill="none" xmlns="http://www.w3.org/2000/svg">
<path d="M23.0766 0.388149C23.3526 -0.129394 24.0945 -0.12938 24.3705 0.388171L25.5525 2.6044C25.6209 2.73277 25.726 2.83785 25.8543 2.90631L28.0706 4.08832C28.5881 4.36435 28.5881 5.10614 28.0706 5.38219L25.8543 6.56418C25.726 6.63267 25.6209 6.73773 25.5525 6.86612L24.3705 9.08236C24.0945 9.59992 23.3526 9.59992 23.0766 9.08236L21.8945 6.86612C21.8261 6.73773 21.721 6.63267 21.5927 6.56418L19.3764 5.38219C18.8589 5.10614 18.8589 4.36435 19.3764 4.08832L21.5927 2.90631C21.721 2.83785 21.8261 2.73277 21.8945 2.60442L23.0766 0.388149ZM9.87895 4.97065C10.155 4.45312 10.8968 4.45312 11.1729 4.97065L14.3313 10.8928C14.3997 11.0211 14.5048 11.1262 14.6332 11.1946L20.5553 14.3531C21.0728 14.6292 21.0728 15.371 20.5553 15.647L14.6332 18.8054C14.5048 18.8738 14.3997 18.9789 14.3313 19.1072L11.1729 25.0294C10.8968 25.5469 10.155 25.5469 9.87895 25.0294L6.72055 19.1072C6.65207 18.9789 6.547 18.8738 6.41862 18.8054L0.496568 15.647C-0.0209901 15.371 -0.0209901 14.6292 0.49656 14.3531L6.41862 11.1946C6.547 11.1262 6.65207 11.0211 6.72055 10.8928L9.87895 4.97065ZM27.8307 21.4594C27.7024 21.391 27.5973 21.2859 27.5289 21.1575L25.8369 17.9849C25.5609 17.4674 24.819 17.4674 24.543 17.9849L22.8509 21.1576C22.7825 21.2859 22.6774 21.391 22.5491 21.4594L19.3764 23.1515C18.8589 23.4275 18.8589 24.1694 19.3764 24.4454L22.5491 26.1374C22.6774 26.2058 22.7825 26.3109 22.8509 26.4392L24.543 29.6119C24.819 30.1294 25.5609 30.1293 25.8369 29.6119L27.5289 26.4393C27.5973 26.3109 27.7024 26.2058 27.8308 26.1374L31.0034 24.4454C31.5209 24.1694 31.5209 23.4275 31.0034 23.1515L27.8307 21.4594Z" fill="#13130F"/>
</svg>
