<svg width="32" height="30" viewBox="0 0 32 30" fill="none" xmlns="http://www.w3.org/2000/svg">
<path d="M23.5766 0.388149C23.8526 -0.129394 24.5945 -0.12938 24.8705 0.388171L26.0525 2.6044C26.1209 2.73277 26.226 2.83785 26.3543 2.90631L28.5706 4.08832C29.0881 4.36435 29.0881 5.10614 28.5706 5.38219L26.3543 6.56418C26.226 6.63267 26.1209 6.73773 26.0525 6.86612L24.8705 9.08236C24.5945 9.59992 23.8526 9.59992 23.5766 9.08236L22.3945 6.86612C22.3261 6.73773 22.221 6.63267 22.0927 6.56418L19.8764 5.38219C19.3589 5.10614 19.3589 4.36435 19.8764 4.08832L22.0927 2.90631C22.221 2.83785 22.3261 2.73277 22.3945 2.60442L23.5766 0.388149ZM10.3789 4.97065C10.655 4.45312 11.3968 4.45312 11.6729 4.97065L14.8313 10.8928C14.8997 11.0211 15.0048 11.1262 15.1332 11.1946L21.0553 14.3531C21.5728 14.6292 21.5728 15.371 21.0553 15.647L15.1332 18.8054C15.0048 18.8738 14.8997 18.9789 14.8313 19.1072L11.6729 25.0294C11.3968 25.5469 10.655 25.5469 10.3789 25.0294L7.22055 19.1072C7.15207 18.9789 7.047 18.8738 6.91862 18.8054L0.996568 15.647C0.47901 15.371 0.47901 14.6292 0.99656 14.3531L6.91862 11.1946C7.047 11.1262 7.15207 11.0211 7.22055 10.8928L10.3789 4.97065ZM28.3307 21.4594C28.2024 21.391 28.0973 21.2859 28.0289 21.1575L26.3369 17.9849C26.0609 17.4674 25.319 17.4674 25.043 17.9849L23.3509 21.1576C23.2825 21.2859 23.1774 21.391 23.0491 21.4594L19.8764 23.1515C19.3589 23.4275 19.3589 24.1694 19.8764 24.4454L23.0491 26.1374C23.1774 26.2058 23.2825 26.3109 23.3509 26.4392L25.043 29.6119C25.319 30.1294 26.0609 30.1293 26.3369 29.6119L28.0289 26.4393C28.0973 26.3109 28.2024 26.2058 28.3308 26.1374L31.5034 24.4454C32.0209 24.1694 32.0209 23.4275 31.5034 23.1515L28.3307 21.4594Z" fill="#13130F"/>
</svg>
