<svg width="109" height="20" viewBox="0 0 109 20" fill="none" xmlns="http://www.w3.org/2000/svg">
<path d="M11.351 17.1681C11.0379 16.9929 10.6564 16.9929 10.3434 17.1681L5.52362 19.866C4.75561 20.2958 3.83671 19.6282 4.00823 18.765L5.08472 13.3473C5.1546 12.9955 5.03671 12.6327 4.77335 12.3892L0.718121 8.63899C0.0719628 8.04147 0.422953 6.96121 1.29693 6.85761L6.782 6.20723C7.13823 6.16499 7.44687 5.94077 7.59714 5.61502L9.91065 0.59938C10.2793 -0.199798 11.4151 -0.199792 11.7837 0.59939L14.0972 5.61502C14.2474 5.94072 14.5561 6.16499 14.9123 6.20723L20.3974 6.85761C21.2713 6.96121 21.6223 8.04147 20.9762 8.63899L16.921 12.3892C16.6577 12.6327 16.5397 12.9955 16.6097 13.3473L17.6861 18.765C17.8576 19.6282 16.9387 20.2958 16.1708 19.866L11.351 17.1681Z" fill="#FF451C"/>
<path d="M33.2738 17.1681C32.9608 16.9929 32.5793 16.9929 32.2663 17.1681L27.4465 19.866C26.6785 20.2958 25.7596 19.6282 25.9311 18.765L27.0076 13.3473C27.0774 12.9955 26.9596 12.6327 26.6962 12.3892L22.641 8.63899C21.9948 8.04147 22.3458 6.96121 23.2198 6.85761L28.7048 6.20723C29.0611 6.16499 29.3697 5.94077 29.52 5.61502L31.8335 0.59938C32.2021 -0.199798 33.338 -0.199792 33.7066 0.59939L36.02 5.61502C36.1703 5.94072 36.4789 6.16499 36.8351 6.20723L42.3202 6.85761C43.1942 6.96121 43.5452 8.04147 42.899 8.63899L38.8438 12.3892C38.5805 12.6327 38.4626 12.9955 38.5325 13.3473L39.6089 18.765C39.7805 19.6282 38.8616 20.2958 38.0936 19.866L33.2738 17.1681Z" fill="#FF451C"/>
<path d="M55.1967 17.1681C54.8836 16.9929 54.5021 16.9929 54.1891 17.1681L49.3693 19.866C48.6013 20.2958 47.6824 19.6282 47.8539 18.765L48.9304 13.3473C49.0003 12.9955 48.8824 12.6327 48.6191 12.3892L44.5638 8.63899C43.9177 8.04147 44.2687 6.96121 45.1426 6.85761L50.6277 6.20723C50.9839 6.16499 51.2926 5.94077 51.4428 5.61502L53.7564 0.59938C54.125 -0.199798 55.2608 -0.199792 55.6294 0.59939L57.9429 5.61502C58.0931 5.94072 58.4018 6.16499 58.758 6.20723L64.2431 6.85761C65.117 6.96121 65.468 8.04147 64.8219 8.63899L60.7667 12.3892C60.5034 12.6327 60.3854 12.9955 60.4554 13.3473L61.5318 18.765C61.7033 19.6282 60.7844 20.2958 60.0165 19.866L55.1967 17.1681Z" fill="#FF451C"/>
<path d="M77.1195 17.1681C76.8065 16.9929 76.425 16.9929 76.112 17.1681L71.2922 19.866C70.5242 20.2958 69.6053 19.6282 69.7768 18.765L70.8533 13.3473C70.9232 12.9955 70.8053 12.6327 70.5419 12.3892L66.4867 8.63899C65.8405 8.04147 66.1915 6.96121 67.0655 6.85761L72.5506 6.20723C72.9068 6.16499 73.2154 5.94077 73.3657 5.61502L75.6792 0.59938C76.0478 -0.199798 77.1837 -0.199792 77.5523 0.59939L79.8657 5.61502C80.016 5.94072 80.3247 6.16499 80.6808 6.20723L86.1659 6.85761C87.0399 6.96121 87.3909 8.04147 86.7447 8.63899L82.6895 12.3892C82.4262 12.6327 82.3083 12.9955 82.3782 13.3473L83.4546 18.765C83.6262 19.6282 82.7073 20.2958 81.9393 19.866L77.1195 17.1681Z" fill="#FF451C"/>
<path d="M99.0414 17.1681C98.7284 16.9929 98.3469 16.9929 98.0338 17.1681L93.2141 19.866C92.446 20.2958 91.5271 19.6282 91.6987 18.765L92.7752 13.3473C92.845 12.9955 92.7271 12.6327 92.4638 12.3892L88.4086 8.63899C87.7624 8.04147 88.1134 6.96121 88.9874 6.85761L94.4724 6.20723C94.8287 6.16499 95.1373 5.94077 95.2876 5.61502L97.6011 0.59938C97.9697 -0.199798 99.1055 -0.199792 99.4742 0.59939L101.788 5.61502C101.938 5.94072 102.247 6.16499 102.603 6.20723L108.088 6.85761C108.962 6.96121 109.313 8.04147 108.667 8.63899L104.611 12.3892C104.348 12.6327 104.23 12.9955 104.3 13.3473L105.377 18.765C105.548 19.6282 104.629 20.2958 103.861 19.866L99.0414 17.1681Z" fill="#FF451C"/>
</svg>
