<svg width="178" height="52" viewBox="0 0 178 52" fill="none" xmlns="http://www.w3.org/2000/svg">
<path fill-rule="evenodd" clip-rule="evenodd" d="M71.518 11.4323C68.483 11.0302 66.3486 12.9324 66.0482 13.2063C64.2008 14.8907 62.9985 17.9304 64.0188 19.7275C64.7958 21.0959 66.571 21.2389 66.4917 21.9284C66.4057 22.6779 64.3233 22.3784 63.3873 23.7024C62.442 25.0392 63.0418 27.4987 64.4221 28.8765C65.3428 29.7954 66.4156 30.0356 67.4702 30.2572C70.5706 30.9087 74.9235 30.328 77.3457 27.3321C77.8474 26.7116 78.1517 26.1292 78.3183 25.772C78.8129 28.3428 81.0529 29.928 83.0489 29.6156C84.4332 29.3989 85.6132 28.2831 86.1534 26.8068C86.5973 27.9936 87.3269 29.3447 88.5187 29.6156C90.4987 30.0659 91.8125 27.1152 94.1363 27.3982C96.1706 27.6458 96.7539 30.2039 98.4234 30.0591C99.5004 29.9657 100.288 28.8117 100.789 27.8417C101.332 28.6326 102.239 29.6792 103.45 29.7635C105.036 29.8739 105.625 28.2266 107.293 28.2852C109.067 28.3474 109.622 30.1706 111.137 30.0591C111.84 30.0074 112.773 29.5336 113.798 27.6938C114.739 29.0786 115.915 30.4318 116.902 30.207C118.323 29.8834 118.472 26.5427 119.563 26.5112C120.318 26.4894 120.372 28.0859 121.929 29.0243C122.86 29.5855 124.481 30.0031 125.772 29.1722C126.991 28.3881 127.212 26.9454 127.251 26.659C127.386 27.0769 127.831 28.2677 129.025 29.0243C129.241 29.1614 130.299 29.8148 131.39 29.6156C132.059 29.4935 133.116 28.9819 135.825 22.3719C136.354 21.0822 136.909 19.5538 136.909 19.5538C137.171 18.8544 137.273 18.5658 137.451 18.0848C138.923 14.0948 139.42 13.4638 139.077 12.4671C139.047 12.3787 138.685 11.3748 137.747 10.9888C136.788 10.5944 135.798 11.0799 135.381 11.2845C133.69 12.1144 133.877 13.3068 132.868 13.6498C130.978 14.2923 129.121 10.5152 126.659 10.841C125.433 11.0033 124.556 12.1177 123.998 13.0585C121.543 10.7647 118.272 9.93568 115.572 10.9888C113.848 11.6612 112.817 12.9211 112.32 13.6498C111.436 12.7729 110.011 11.6273 108.032 10.9888C106.645 10.5412 105.605 10.5425 105.372 10.5453C104.71 10.5532 103.645 10.5657 102.563 11.1367C100.881 12.0238 100.236 13.6902 100.05 14.2411C99.3484 12.3579 97.5608 11.1148 95.6146 11.1367C93.8687 11.1563 92.2624 12.191 91.4753 13.7976C90.9548 13.2328 90.1323 12.4726 88.9622 11.8758C88.1058 11.4391 87.275 11.1979 82.3097 10.9888C78.8555 10.8434 77.8239 10.8998 76.6921 11.5802C75.9108 12.0498 75.3883 12.6326 75.066 13.0585C74.567 12.6231 73.3399 11.6737 71.518 11.4323Z" fill="#FFA910"/>
<path d="M68.7282 28.7617C67.2055 28.7617 66.0066 28.3639 65.1315 27.5684C64.3942 26.9067 64.0254 26.1427 64.0254 25.2769C64.0254 24.8332 64.1392 24.4654 64.3672 24.1733C64.595 23.8812 64.9096 23.735 65.3114 23.735C65.8508 23.735 66.2464 24.0589 66.4983 24.7065C66.84 25.5725 67.6133 26.0054 68.8181 26.0054C69.8492 26.0054 70.8472 25.7415 71.8124 25.2135C72.8136 24.6715 73.3141 24.0766 73.3141 23.4288C73.3141 22.5417 73.0023 21.9575 72.3789 21.6757C71.9353 21.4717 71.045 21.3519 69.7083 21.3168C68.6712 21.2887 67.7422 21.0598 66.9208 20.6304C65.8118 20.046 65.2664 19.2082 65.2843 18.1169C65.3024 16.7442 65.9256 15.4858 67.1547 14.3416C68.3835 13.1977 69.7384 12.6256 71.219 12.6256C71.8064 12.6256 72.5318 12.7839 73.3951 13.1007C74.4681 13.4951 75.0047 13.9493 75.0047 14.4631C75.0047 14.8292 74.8966 15.1531 74.6808 15.4347C74.441 15.7515 74.1324 15.9098 73.7546 15.9098C73.4729 15.9098 73.0519 15.8396 72.4914 15.6986C71.9308 15.558 71.5067 15.4875 71.219 15.4875C70.4457 15.4945 69.7113 15.7127 69.016 16.1422C68.2967 16.5787 67.9369 17.054 67.9369 17.5677C67.9369 17.8355 68.0463 18.0554 68.2652 18.2278C68.484 18.4005 68.812 18.5218 69.2498 18.5921C70.017 18.6414 70.7813 18.6908 71.5428 18.7399C72.8736 18.8598 73.9255 19.2997 74.6988 20.06C75.5501 20.9049 75.9757 22.0735 75.9757 23.566C75.9757 25.3824 75.0944 26.7589 73.3321 27.6951C71.9892 28.4062 70.4547 28.7617 68.7282 28.7617Z" fill="#13130F"/>
<path d="M68.7282 28.7617C67.2055 28.7617 66.0066 28.3639 65.1315 27.5684C64.3942 26.9067 64.0254 26.1427 64.0254 25.2769C64.0254 24.8332 64.1392 24.4654 64.3672 24.1733C64.595 23.8812 64.9096 23.735 65.3114 23.735C65.8508 23.735 66.2464 24.0589 66.4983 24.7065C66.84 25.5725 67.6133 26.0054 68.8181 26.0054C69.8492 26.0054 70.8472 25.7415 71.8124 25.2135C72.8136 24.6715 73.3141 24.0766 73.3141 23.4288C73.3141 22.5417 73.0023 21.9575 72.3789 21.6757C71.9353 21.4717 71.045 21.3519 69.7083 21.3168C68.6712 21.2887 67.7422 21.0598 66.9208 20.6304C65.8118 20.046 65.2664 19.2082 65.2843 18.1169C65.3024 16.7442 65.9256 15.4858 67.1547 14.3416C68.3835 13.1977 69.7384 12.6256 71.219 12.6256C71.8064 12.6256 72.5318 12.7839 73.3951 13.1007C74.4681 13.4951 75.0047 13.9493 75.0047 14.4631C75.0047 14.8292 74.8966 15.1531 74.6808 15.4347C74.441 15.7515 74.1324 15.9098 73.7546 15.9098C73.4729 15.9098 73.0519 15.8396 72.4914 15.6986C71.9308 15.558 71.5067 15.4875 71.219 15.4875C70.4457 15.4945 69.7113 15.7127 69.016 16.1422C68.2967 16.5787 67.9369 17.054 67.9369 17.5677C67.9369 17.8355 68.0463 18.0554 68.2652 18.2278C68.484 18.4005 68.812 18.5218 69.2498 18.5921C70.017 18.6414 70.7813 18.6908 71.5428 18.7399C72.8736 18.8598 73.9255 19.2997 74.6988 20.06C75.5501 20.9049 75.9757 22.0735 75.9757 23.566C75.9757 25.3824 75.0944 26.7589 73.3321 27.6951C71.9892 28.4062 70.4547 28.7617 68.7282 28.7617Z" stroke="white" stroke-miterlimit="22.926"/>
<path d="M88.0157 15.4579C87.5481 15.4579 86.8197 15.4193 85.8307 15.3417C84.8775 15.2642 84.1493 15.2292 83.6456 15.2361C83.6696 16.0387 83.7505 17.468 83.8884 19.5236C84.0143 21.34 84.0772 22.7762 84.0772 23.8321C84.0772 24.0716 84.0982 24.4271 84.1401 24.8987C84.182 25.3705 84.2031 25.7261 84.2031 25.9653C84.2031 26.4934 84.1073 26.9687 83.9154 27.391C83.6696 27.9333 83.3189 28.2041 82.8633 28.2041C82.5337 28.2041 82.2429 28.0811 81.9911 27.8345C81.7093 27.56 81.5686 27.2151 81.5686 26.7997C81.5686 26.7011 81.5834 26.5515 81.6134 26.3509C81.6436 26.1501 81.6585 25.9971 81.6585 25.8914C81.6585 25.5677 81.639 25.0783 81.6001 24.4236C81.5609 23.7689 81.5416 23.2761 81.5416 22.9451C81.5416 22.0018 81.4786 20.724 81.3528 19.1117C81.2089 17.2603 81.125 15.9824 81.101 15.2784H80.6333C79.2966 15.2784 78.2356 15.1658 77.4502 14.9405C76.7848 14.7504 76.4521 14.2893 76.4521 13.5571C76.4521 13.198 76.5601 12.8742 76.7759 12.5855C77.0277 12.2406 77.3572 12.0857 77.7649 12.1207C77.9747 12.1349 78.4514 12.1947 79.1947 12.3004C79.7883 12.378 80.2677 12.4165 80.6333 12.4165C80.999 12.4165 81.546 12.4096 82.2744 12.3954C83.0027 12.3814 83.5497 12.3743 83.9154 12.3743C84.3709 12.3743 85.0543 12.4112 85.9656 12.4851C86.8768 12.5591 87.5601 12.596 88.0157 12.596C88.3755 12.596 88.6767 12.7334 88.9194 13.0079C89.1623 13.2824 89.2835 13.6203 89.2835 14.0217C89.2835 14.4229 89.1623 14.7626 88.9194 15.0407C88.6767 15.3189 88.3755 15.4579 88.0157 15.4579Z" fill="#13130F"/>
<path d="M88.0157 15.4579C87.5481 15.4579 86.8197 15.4193 85.8307 15.3417C84.8775 15.2642 84.1493 15.2292 83.6456 15.2361C83.6696 16.0387 83.7505 17.468 83.8884 19.5236C84.0143 21.34 84.0772 22.7762 84.0772 23.8321C84.0772 24.0716 84.0982 24.4271 84.1401 24.8987C84.182 25.3705 84.2031 25.7261 84.2031 25.9653C84.2031 26.4934 84.1073 26.9687 83.9154 27.391C83.6696 27.9333 83.3189 28.2041 82.8633 28.2041C82.5337 28.2041 82.2429 28.0811 81.9911 27.8345C81.7093 27.56 81.5686 27.2151 81.5686 26.7997C81.5686 26.7011 81.5834 26.5515 81.6134 26.3509C81.6436 26.1501 81.6585 25.9971 81.6585 25.8914C81.6585 25.5677 81.639 25.0783 81.6001 24.4236C81.5609 23.7689 81.5416 23.2761 81.5416 22.9451C81.5416 22.0018 81.4786 20.724 81.3528 19.1117C81.2089 17.2603 81.125 15.9824 81.101 15.2784H80.6333C79.2966 15.2784 78.2356 15.1658 77.4502 14.9405C76.7848 14.7504 76.4521 14.2893 76.4521 13.5571C76.4521 13.198 76.5601 12.8742 76.7759 12.5855C77.0277 12.2406 77.3572 12.0857 77.7649 12.1207C77.9747 12.1349 78.4514 12.1947 79.1947 12.3004C79.7883 12.378 80.2677 12.4165 80.6333 12.4165C80.999 12.4165 81.546 12.4096 82.2744 12.3954C83.0027 12.3814 83.5497 12.3743 83.9154 12.3743C84.3709 12.3743 85.0543 12.4112 85.9656 12.4851C86.8768 12.5591 87.5601 12.596 88.0157 12.596C88.3755 12.596 88.6767 12.7334 88.9194 13.0079C89.1623 13.2824 89.2835 13.6203 89.2835 14.0217C89.2835 14.4229 89.1623 14.7626 88.9194 15.0407C88.6767 15.3189 88.3755 15.4579 88.0157 15.4579Z" stroke="white" stroke-miterlimit="22.926"/>
<path d="M94.845 17.5996C94.3774 18.5431 93.733 19.8279 92.9118 21.4542C93.1815 21.3838 93.601 21.3274 94.1706 21.2852C94.8419 21.236 95.2646 21.1973 95.4386 21.169C95.2946 20.2539 95.0968 19.0641 94.845 17.5996ZM98.1989 28.4345C97.7254 28.4134 97.2488 27.7586 96.7694 26.4703C96.4514 25.6396 96.1788 24.6821 95.951 23.5979C95.5073 23.6755 94.7821 23.7528 93.775 23.8302C92.8277 23.9078 92.1025 23.9993 91.5989 24.1048C91.3232 24.8793 90.8437 26.0445 90.1602 27.6002C89.8964 28.1072 89.5308 28.3606 89.0633 28.3606C88.7335 28.3606 88.4367 28.2286 88.1729 27.9646C87.9092 27.7005 87.7773 27.3645 87.7773 26.9561C87.7773 26.597 88.2148 25.3791 89.0902 23.3022C89.0063 23.084 88.9702 22.8797 88.9823 22.6898C89.0063 22.3518 89.2971 22.0878 89.8545 21.8977C90.7056 20.1658 91.6529 18.3706 92.696 16.5119C94.1946 13.8438 95.1178 12.5095 95.4655 12.5095C96.1248 12.5095 96.5655 12.9778 96.7873 13.914C96.9071 14.6675 97.0961 15.7974 97.3537 17.304C97.7193 19.3315 98.1659 21.6514 98.6935 24.2631C98.7354 24.4604 98.8884 24.925 99.1521 25.6572C99.368 26.2627 99.4759 26.7169 99.4759 27.0195C99.4759 27.4278 99.3455 27.7693 99.0847 28.0438C98.8239 28.3183 98.5286 28.4486 98.1989 28.4345Z" fill="#13130F"/>
<path d="M94.845 17.5996C94.3774 18.5431 93.733 19.8279 92.9118 21.4542C93.1815 21.3838 93.601 21.3274 94.1706 21.2852C94.8419 21.236 95.2646 21.1973 95.4386 21.169C95.2946 20.2539 95.0968 19.0641 94.845 17.5996ZM98.1989 28.4345C97.7254 28.4134 97.2488 27.7586 96.7694 26.4703C96.4514 25.6396 96.1788 24.6821 95.951 23.5979C95.5073 23.6755 94.7821 23.7528 93.775 23.8302C92.8277 23.9078 92.1025 23.9993 91.5989 24.1048C91.3232 24.8793 90.8437 26.0445 90.1602 27.6002C89.8964 28.1072 89.5308 28.3606 89.0633 28.3606C88.7335 28.3606 88.4367 28.2286 88.1729 27.9646C87.9092 27.7005 87.7773 27.3645 87.7773 26.9561C87.7773 26.597 88.2148 25.3791 89.0902 23.3022C89.0063 23.084 88.9702 22.8797 88.9823 22.6898C89.0063 22.3518 89.2971 22.0878 89.8545 21.8977C90.7056 20.1658 91.6529 18.3706 92.696 16.5119C94.1946 13.8438 95.1178 12.5095 95.4655 12.5095C96.1248 12.5095 96.5655 12.9778 96.7873 13.914C96.9071 14.6675 97.0961 15.7974 97.3537 17.304C97.7193 19.3315 98.1659 21.6514 98.6935 24.2631C98.7354 24.4604 98.8884 24.925 99.1521 25.6572C99.368 26.2627 99.4759 26.7169 99.4759 27.0195C99.4759 27.4278 99.3455 27.7693 99.0847 28.0438C98.8239 28.3183 98.5286 28.4486 98.1989 28.4345Z" stroke="white" stroke-miterlimit="22.926"/>
<path d="M105.678 14.9606C105.63 14.9537 105.28 14.9254 104.626 14.8761V20.4836C104.776 20.4907 104.908 20.4943 105.022 20.4943C106.49 20.4943 107.579 20.2795 108.286 19.85C108.592 19.667 108.872 19.4241 109.127 19.1214C109.381 18.8187 109.509 18.5899 109.509 18.435C109.509 17.6466 109.083 16.8861 108.232 16.1539C107.423 15.464 106.572 15.0662 105.678 14.9606ZM111.442 28.2455C111.119 28.2455 110.822 28.0976 110.552 27.8019C108.736 25.8026 106.739 24.4157 104.563 23.6412C104.629 25.6898 104.662 26.8269 104.662 27.0521C104.662 27.4535 104.542 27.7932 104.303 28.0712C104.063 28.3492 103.763 28.4883 103.403 28.4883C103.044 28.4883 102.744 28.3492 102.504 28.0712C102.264 27.7932 102.145 27.4535 102.145 27.0521C102.145 26.5242 102.15 25.7339 102.163 24.6813C102.175 23.6289 102.18 22.8386 102.18 22.3105L102.198 13.7885C102.198 13.3309 102.315 12.9155 102.549 12.5423C102.855 12.0636 103.278 11.8489 103.817 11.8981C105.274 12.0248 106.02 12.0918 106.056 12.0988C106.895 12.2185 107.609 12.4543 108.196 12.8063C110.756 14.3201 112.036 16.1961 112.036 18.435C112.036 19.3573 111.767 20.1721 111.231 20.8797C110.694 21.5872 109.889 22.1838 108.817 22.6696C110.405 23.7117 111.601 24.7747 112.404 25.8588C112.614 26.1404 112.719 26.4538 112.719 26.7987C112.719 27.1931 112.593 27.5325 112.341 27.8179C112.089 28.1029 111.79 28.2455 111.442 28.2455Z" fill="#13130F"/>
<path d="M105.678 14.9606C105.63 14.9537 105.28 14.9254 104.626 14.8761V20.4836C104.776 20.4907 104.908 20.4943 105.022 20.4943C106.49 20.4943 107.579 20.2795 108.286 19.85C108.592 19.667 108.872 19.4241 109.127 19.1214C109.381 18.8187 109.509 18.5899 109.509 18.435C109.509 17.6466 109.083 16.8861 108.232 16.1539C107.423 15.464 106.572 15.0662 105.678 14.9606ZM111.442 28.2455C111.119 28.2455 110.822 28.0976 110.552 27.8019C108.736 25.8026 106.739 24.4157 104.563 23.6412C104.629 25.6898 104.662 26.8269 104.662 27.0521C104.662 27.4535 104.542 27.7932 104.303 28.0712C104.063 28.3492 103.763 28.4883 103.403 28.4883C103.044 28.4883 102.744 28.3492 102.504 28.0712C102.264 27.7932 102.145 27.4535 102.145 27.0521C102.145 26.5242 102.15 25.7339 102.163 24.6813C102.175 23.6289 102.18 22.8386 102.18 22.3105L102.198 13.7885C102.198 13.3309 102.315 12.9155 102.549 12.5423C102.855 12.0636 103.278 11.8489 103.817 11.8981C105.274 12.0248 106.02 12.0918 106.056 12.0988C106.895 12.2185 107.609 12.4543 108.196 12.8063C110.756 14.3201 112.036 16.1961 112.036 18.435C112.036 19.3573 111.767 20.1721 111.231 20.8797C110.694 21.5872 109.889 22.1838 108.817 22.6696C110.405 23.7117 111.601 24.7747 112.404 25.8588C112.614 26.1404 112.719 26.4538 112.719 26.7987C112.719 27.1931 112.593 27.5325 112.341 27.8179C112.089 28.1029 111.79 28.2455 111.442 28.2455Z" stroke="white" stroke-miterlimit="22.926"/>
<path d="M118.499 14.9606C118.451 14.9537 118.1 14.9254 117.447 14.8761V20.4836C117.596 20.4907 117.728 20.4943 117.842 20.4943C119.311 20.4943 120.399 20.2795 121.106 19.85C121.412 19.667 121.692 19.4241 121.947 19.1214C122.202 18.8187 122.329 18.5899 122.329 18.435C122.329 17.6466 121.903 16.8861 121.052 16.1539C120.243 15.464 119.392 15.0662 118.499 14.9606ZM124.262 28.2455C123.939 28.2455 123.642 28.0976 123.372 27.8019C121.556 25.8026 119.56 24.4157 117.384 23.6412C117.449 25.6898 117.483 26.8269 117.483 27.0521C117.483 27.4535 117.363 27.7932 117.123 28.0712C116.883 28.3492 116.583 28.4883 116.224 28.4883C115.864 28.4883 115.564 28.3492 115.325 28.0712C115.085 27.7932 114.965 27.4535 114.965 27.0521C114.965 26.5242 114.971 25.7339 114.983 24.6813C114.995 23.6289 115.001 22.8386 115.001 22.3105L115.019 13.7885C115.019 13.3309 115.136 12.9155 115.369 12.5423C115.675 12.0636 116.098 11.8489 116.637 11.8981C118.094 12.0248 118.84 12.0918 118.876 12.0988C119.715 12.2185 120.429 12.4543 121.016 12.8063C123.576 14.3201 124.856 16.1961 124.856 18.435C124.856 19.3573 124.588 20.1721 124.051 20.8797C123.515 21.5872 122.71 22.1838 121.637 22.6696C123.225 23.7117 124.421 24.7747 125.225 25.8588C125.434 26.1404 125.539 26.4538 125.539 26.7987C125.539 27.1931 125.413 27.5325 125.162 27.8179C124.91 28.1029 124.61 28.2455 124.262 28.2455Z" fill="#13130F"/>
<path d="M118.499 14.9606C118.451 14.9537 118.1 14.9254 117.447 14.8761V20.4836C117.596 20.4907 117.728 20.4943 117.842 20.4943C119.311 20.4943 120.399 20.2795 121.106 19.85C121.412 19.667 121.692 19.4241 121.947 19.1214C122.202 18.8187 122.329 18.5899 122.329 18.435C122.329 17.6466 121.903 16.8861 121.052 16.1539C120.243 15.464 119.392 15.0662 118.499 14.9606ZM124.262 28.2455C123.939 28.2455 123.642 28.0976 123.372 27.8019C121.556 25.8026 119.56 24.4157 117.384 23.6412C117.449 25.6898 117.483 26.8269 117.483 27.0521C117.483 27.4535 117.363 27.7932 117.123 28.0712C116.883 28.3492 116.583 28.4883 116.224 28.4883C115.864 28.4883 115.564 28.3492 115.325 28.0712C115.085 27.7932 114.965 27.4535 114.965 27.0521C114.965 26.5242 114.971 25.7339 114.983 24.6813C114.995 23.6289 115.001 22.8386 115.001 22.3105L115.019 13.7885C115.019 13.3309 115.136 12.9155 115.369 12.5423C115.675 12.0636 116.098 11.8489 116.637 11.8981C118.094 12.0248 118.84 12.0918 118.876 12.0988C119.715 12.2185 120.429 12.4543 121.016 12.8063C123.576 14.3201 124.856 16.1961 124.856 18.435C124.856 19.3573 124.588 20.1721 124.051 20.8797C123.515 21.5872 122.71 22.1838 121.637 22.6696C123.225 23.7117 124.421 24.7747 125.225 25.8588C125.434 26.1404 125.539 26.4538 125.539 26.7987C125.539 27.1931 125.413 27.5325 125.162 27.8179C124.91 28.1029 124.61 28.2455 124.262 28.2455Z" stroke="white" stroke-miterlimit="22.926"/>
<path d="M137.078 15.0858C136.772 15.8249 136.158 17.4233 135.235 19.8802C134.467 21.936 133.814 23.5482 133.275 24.7167C132.339 26.7444 131.839 27.8181 131.773 27.9377C131.419 28.5501 131.012 28.8564 130.55 28.8564C130.22 28.8564 129.929 28.7296 129.678 28.4762C129.402 28.1946 129.264 27.8463 129.264 27.4308C129.264 27.0859 129.891 25.6355 131.143 23.0799C130.682 22.2985 130.019 21.1123 129.156 19.521C128.509 18.3525 127.559 16.5889 126.306 14.2304C126.186 13.9911 126.126 13.7411 126.126 13.4806C126.126 13.0724 126.261 12.7274 126.531 12.4458C126.782 12.1853 127.076 12.0551 127.412 12.0551C127.807 12.0551 128.167 12.2908 128.491 12.7626L129.165 14.0296C129.207 14.1142 129.723 15.1422 130.712 17.1133C131.335 18.3737 131.887 19.3698 132.366 20.102C132.822 19.0247 133.478 17.395 134.336 15.2125C134.515 14.7267 134.785 13.9911 135.145 13.0053C135.373 12.3719 135.762 12.0551 136.314 12.0551C136.643 12.0551 136.934 12.1816 137.186 12.4351C137.462 12.7097 137.6 13.0547 137.6 13.4701C137.6 13.7094 137.426 14.248 137.078 15.0858Z" fill="#13130F"/>
<path d="M137.078 15.0858C136.772 15.8249 136.158 17.4233 135.235 19.8802C134.467 21.936 133.814 23.5482 133.275 24.7167C132.339 26.7444 131.839 27.8181 131.773 27.9377C131.419 28.5501 131.012 28.8564 130.55 28.8564C130.22 28.8564 129.929 28.7296 129.678 28.4762C129.402 28.1946 129.264 27.8463 129.264 27.4308C129.264 27.0859 129.891 25.6355 131.143 23.0799C130.682 22.2985 130.019 21.1123 129.156 19.521C128.509 18.3525 127.559 16.5889 126.306 14.2304C126.186 13.9911 126.126 13.7411 126.126 13.4806C126.126 13.0724 126.261 12.7274 126.531 12.4458C126.782 12.1853 127.076 12.0551 127.412 12.0551C127.807 12.0551 128.167 12.2908 128.491 12.7626L129.165 14.0296C129.207 14.1142 129.723 15.1422 130.712 17.1133C131.335 18.3737 131.887 19.3698 132.366 20.102C132.822 19.0247 133.478 17.395 134.336 15.2125C134.515 14.7267 134.785 13.9911 135.145 13.0053C135.373 12.3719 135.762 12.0551 136.314 12.0551C136.643 12.0551 136.934 12.1816 137.186 12.4351C137.462 12.7097 137.6 13.0547 137.6 13.4701C137.6 13.7094 137.426 14.248 137.078 15.0858Z" stroke="white" stroke-miterlimit="22.926"/>
<path fill-rule="evenodd" clip-rule="evenodd" d="M82.24 36.4202C80.0187 36.0795 77.6492 38.7671 76.6897 41.0008C76.2595 42.0024 75.4251 43.9446 76.394 45.5836C77.2233 46.9865 79.0381 47.5341 80.3855 47.5054C82.7814 47.4546 83.7689 45.5733 85.1161 46.1749C86.0968 46.613 86.0493 47.8222 87.3336 48.2446C88.0813 48.4906 88.7668 48.3008 88.9597 48.2446C91.3197 47.5583 91.4699 44.0204 92.8033 43.9575C93.884 43.9064 94.1455 46.2132 95.76 46.7663C97.3619 47.3149 99.3181 45.8027 100.638 44.5488C100.686 44.8552 100.952 46.3467 102.265 47.2098C103.805 48.2224 105.56 47.5635 106.108 47.3576C108.032 46.6356 108.869 44.9685 109.065 44.5488C109.29 45.9981 110.433 47.1395 111.874 47.3576C113.342 47.5799 114.796 46.7942 115.422 45.4358C115.692 46.8869 116.373 47.3666 116.604 47.5054C118.019 48.3568 120.743 47.3787 122.813 44.5488C122.854 44.747 123.122 45.974 124.144 46.4706C125.313 47.0387 127.061 46.4533 127.987 44.8444C127.998 44.9821 128.263 48.0314 129.761 48.3924C130.01 48.4523 130.32 48.4449 130.796 48.2446C133.307 47.1873 133.668 43.6028 134.64 43.6618C135.328 43.7035 135.224 45.5064 136.414 46.3228C137.676 47.1894 139.715 46.4764 141.44 45.5836C141.72 45.9341 143.036 47.5044 145.136 47.6532C147.471 47.8188 149.824 46.1601 150.753 43.514C150.842 43.915 151.368 46.109 153.267 47.0619C155.46 48.1625 158.673 47.1997 160.51 44.4009C160.577 44.5973 161.359 46.7893 163.467 47.3576C165.446 47.8913 167.759 46.7674 168.789 44.5488C169.75 46.1434 170.816 46.4094 171.154 46.4706C172.398 46.6956 173.56 45.6844 175.885 43.6618C177.509 42.249 177.879 41.58 177.954 40.853C177.966 40.7452 178.092 39.3761 177.363 38.9312C176.07 38.1413 173.582 41.177 172.633 40.5573C171.476 39.8029 174.585 34.9279 172.633 32.5744C172.124 31.961 171.262 31.5071 170.563 31.6874C169.483 31.9664 168.728 33.7792 168.937 36.2702C168.268 36.1815 167.265 36.1296 166.128 36.418C164.291 36.8841 164.162 37.7173 162.876 38.0442C160.412 38.6702 159.248 36.0254 156.371 36.418C154.685 36.6482 154.852 37.5883 153.119 37.8963C150.135 38.4268 149.061 35.7439 146.466 36.2702C144.744 36.6197 143.258 38.1998 141.736 39.8182C140.59 41.0367 140.062 41.8823 139.518 41.74C138.511 41.4761 139.24 38.2621 137.892 37.4528C137.186 37.0293 135.78 37.1862 132.718 39.6703C134.095 36.0888 133.9 33.2059 132.57 32.4266C131.927 32.0494 130.912 32.1031 130.205 32.5744C128.291 33.8492 129.795 37.3961 127.396 39.966C127.165 40.2135 126.559 40.8623 126.213 40.7051C125.227 40.2571 128.207 34.1019 126.213 32.4266C125.56 31.8777 124.509 31.9235 123.848 32.2787C122.697 32.8977 122.171 34.7595 122.813 36.8615C120.934 35.9648 119.738 36.0881 118.97 36.418C116.506 37.4761 116.525 41.4802 114.091 41.8878C113.765 41.9424 113.267 42.0257 112.908 41.74C111.412 40.5483 115.28 35.2816 113.5 33.1657C112.787 32.3186 111.206 32.0424 110.247 32.5744C108.506 33.5411 109.773 36.6495 107.439 40.2617C106.814 41.2289 105.728 42.5458 105.221 42.3313C104.947 42.215 104.88 41.6643 105.073 39.6703C105.492 35.3575 106.214 33.731 105.369 32.8701C104.897 32.3887 104.065 32.2838 103.447 32.4266C100.55 33.0964 100.675 39.9233 98.7166 40.1138C97.4522 40.2368 96.959 37.4329 94.7251 37.1572C93.1295 36.9603 92.2395 38.2369 91.4728 37.7485C90.3393 37.0262 91.8724 33.776 90.5859 32.8701C90.0634 32.5023 89.2736 32.6601 88.8119 32.8701C86.5092 33.9173 87.2976 38.5665 85.8552 38.9312C84.7937 39.1996 84.205 36.7217 82.24 36.4202Z" fill="#FFA910"/>
<path d="M88.6648 40.5449C88.6648 40.63 88.6364 40.7547 88.5797 40.9191C88.5287 41.0779 88.4578 41.2565 88.3671 41.455C88.2764 41.6477 88.1687 41.849 88.0439 42.0588C87.9249 42.2686 87.8001 42.4642 87.6697 42.6457C87.2898 43.1617 86.9156 43.6323 86.547 44.0575C86.1785 44.4771 85.8071 44.8599 85.4328 45.2057C85.0643 45.5516 84.6872 45.8663 84.3016 46.1498C83.9161 46.4333 83.5192 46.697 83.1109 46.9408C82.6913 47.1903 82.2264 47.3802 81.7161 47.5106C81.2114 47.6411 80.6501 47.7063 80.0321 47.7063C79.6975 47.7063 79.3885 47.6552 79.105 47.5532C78.8215 47.4511 78.5777 47.2952 78.3735 47.0854C78.1694 46.8699 78.0107 46.5978 77.8973 46.2689C77.7839 45.94 77.7272 45.5516 77.7272 45.1037C77.7272 44.8655 77.7612 44.599 77.8292 44.3042C77.8973 44.0037 77.9908 43.6918 78.1099 43.3686C78.229 43.0398 78.3679 42.7081 78.5266 42.3735C78.6911 42.0333 78.8668 41.7101 79.054 41.4039C79.2467 41.0977 79.4452 40.8142 79.6493 40.5534C79.8591 40.2926 80.0689 40.0715 80.2787 39.89C80.3978 39.7879 80.548 39.6916 80.7295 39.6008C80.9109 39.5044 81.098 39.4194 81.2908 39.3457C81.4893 39.272 81.6821 39.2153 81.8692 39.1756C82.062 39.1302 82.2292 39.1075 82.371 39.1075C82.5808 39.1075 82.7849 39.1472 82.9833 39.2266C83.1818 39.306 83.3576 39.408 83.5107 39.5328C83.6638 39.6519 83.7857 39.7908 83.8764 39.9495C83.9728 40.1026 84.021 40.2557 84.021 40.4088C84.021 40.5279 83.9955 40.6555 83.9444 40.7916C83.8934 40.922 83.8254 41.0439 83.7403 41.1573C83.6553 41.265 83.5589 41.3557 83.4511 41.4294C83.3491 41.5032 83.2413 41.54 83.1279 41.54C83.0372 41.54 82.9437 41.506 82.8473 41.4379C82.7509 41.3642 82.6658 41.2622 82.5921 41.1318C82.5297 41.0297 82.4674 40.9333 82.405 40.8426C82.3426 40.7519 82.2803 40.7065 82.2179 40.7065C82.0024 40.7065 81.787 40.7887 81.5715 40.9532C81.3617 41.1119 81.1604 41.3189 80.9676 41.574C80.7748 41.8292 80.5962 42.1184 80.4318 42.4416C80.273 42.7591 80.1313 43.0794 80.0065 43.4026C79.8875 43.7202 79.7939 44.0235 79.7259 44.3127C79.6578 44.5962 79.6238 44.8315 79.6238 45.0186C79.6238 45.1944 79.655 45.3447 79.7174 45.4694C79.7854 45.5941 79.8705 45.6962 79.9725 45.7756C80.0746 45.855 80.188 45.9117 80.3127 45.9457C80.4375 45.9797 80.5622 45.9967 80.687 45.9967C80.8571 45.9967 81.0498 45.9712 81.2653 45.9202C81.4864 45.8691 81.7104 45.8039 81.9372 45.7246C82.164 45.6395 82.3823 45.5459 82.5921 45.4439C82.8076 45.3362 82.9947 45.2284 83.1535 45.1207C83.573 44.8315 83.9983 44.5026 84.4292 44.1341C84.8658 43.7599 85.2826 43.3658 85.6795 42.9519C86.0821 42.5379 86.4535 42.1155 86.7937 41.6846C87.1339 41.2537 87.4174 40.8398 87.6442 40.4428C87.7066 40.3294 87.7888 40.2501 87.8908 40.2047C87.9929 40.1537 88.0978 40.1282 88.2055 40.1282C88.3076 40.1282 88.4096 40.1678 88.5117 40.2472C88.6138 40.3266 88.6648 40.4258 88.6648 40.5449Z" fill="#13130F"/>
<path d="M101.899 41.557C101.899 41.6421 101.856 41.764 101.771 41.9227C101.686 42.0815 101.576 42.2544 101.44 42.4416C101.303 42.6287 101.15 42.8243 100.98 43.0284C100.81 43.2269 100.643 43.4111 100.478 43.5813C100.167 43.8988 99.8321 44.2333 99.4749 44.5849C99.1233 44.9307 98.7491 45.2483 98.3522 45.5374C97.9609 45.8266 97.5499 46.0648 97.1189 46.2519C96.688 46.439 96.2401 46.5325 95.7751 46.5325C95.4066 46.5325 95.089 46.4645 94.8225 46.3284C94.556 46.1867 94.3321 45.9769 94.1506 45.699C93.9692 45.4212 93.8246 45.0782 93.7169 44.6699C93.6091 44.2617 93.5298 43.7882 93.4787 43.2495C93.4617 43.0398 93.4419 42.8498 93.4192 42.6797C93.4022 42.5039 93.3823 42.3537 93.3597 42.2289C93.337 42.1042 93.3086 42.0078 93.2746 41.9398C93.2462 41.8717 93.2094 41.8377 93.164 41.8377C93.0053 41.8377 92.7926 41.9596 92.5261 42.2034C92.2596 42.4472 91.9506 42.7818 91.5991 43.207C91.2532 43.6323 90.8733 44.1369 90.4594 44.7209C90.0511 45.2993 89.623 45.9287 89.1751 46.6091C89.1354 46.6658 89.0589 46.7565 88.9455 46.8813C88.8377 47.0003 88.7158 47.1222 88.5797 47.247C88.4493 47.366 88.3161 47.4709 88.18 47.5617C88.0439 47.6524 87.9334 47.6978 87.8483 47.6978C87.7009 47.6978 87.5535 47.6836 87.406 47.6552C87.2643 47.6269 87.1367 47.5815 87.0233 47.5191C86.9156 47.4568 86.8277 47.3774 86.7596 47.281C86.6916 47.1789 86.6576 47.0542 86.6576 46.9068C86.6576 46.8331 86.6689 46.7225 86.6916 46.5751C86.7143 46.422 86.7398 46.2632 86.7681 46.0988C86.8022 45.9287 86.8334 45.7642 86.8617 45.6055C86.8957 45.4467 86.9241 45.3248 86.9468 45.2398C86.9581 45.1887 86.9779 45.081 87.0063 44.9166C87.0346 44.7521 87.0687 44.5508 87.1084 44.3127C87.148 44.0689 87.1934 43.7995 87.2444 43.5047C87.2955 43.2099 87.3465 42.9093 87.3975 42.6032C87.4486 42.297 87.4996 41.9936 87.5506 41.6931C87.6017 41.3869 87.647 41.1062 87.6867 40.8511C87.7321 40.5959 87.7689 40.3748 87.7973 40.1877C87.8313 39.9949 87.854 39.856 87.8653 39.7709C87.871 39.7199 87.888 39.6008 87.9163 39.4137C87.9447 39.2209 87.9759 38.9941 88.0099 38.7333C88.0439 38.4725 88.0808 38.1946 88.1205 37.8998C88.1658 37.605 88.2055 37.33 88.2395 37.0748C88.2736 36.814 88.3019 36.5872 88.3246 36.3944C88.3529 36.2016 88.37 36.0797 88.3756 36.0287C88.3926 35.8756 88.4323 35.7083 88.4947 35.5269C88.5571 35.3454 88.6364 35.1781 88.7328 35.0251C88.8292 34.8663 88.937 34.733 89.056 34.6253C89.1808 34.5176 89.3112 34.4637 89.4473 34.4637C89.5663 34.4637 89.6939 34.4892 89.83 34.5403C89.9718 34.5856 90.0993 34.6593 90.2127 34.7614C90.3318 34.8635 90.431 34.9939 90.5104 35.1526C90.5898 35.3114 90.6295 35.5013 90.6295 35.7225C90.6295 35.8812 90.6153 36.074 90.587 36.3008C90.5586 36.5276 90.5218 36.7686 90.4764 37.0238C90.4367 37.2789 90.3885 37.5397 90.3318 37.8062C90.2808 38.0727 90.2297 38.3279 90.1787 38.5717C90.1277 38.8099 90.0767 39.031 90.0256 39.2351C89.9803 39.4336 89.9434 39.5923 89.9151 39.7114C89.8697 39.9042 89.8215 40.1026 89.7705 40.3068C89.7194 40.5052 89.6741 40.6867 89.6344 40.8511C89.6117 40.9418 89.5777 41.0722 89.5323 41.2423C89.487 41.4124 89.4359 41.6081 89.3792 41.8292C89.3225 42.0503 89.2602 42.2885 89.1921 42.5436C89.1297 42.7988 89.0645 43.0568 88.9965 43.3176C88.9341 43.5727 88.8718 43.8222 88.8094 44.066C88.7527 44.3099 88.7045 44.531 88.6648 44.7294C88.8689 44.4119 89.0901 44.0774 89.3282 43.7258C89.572 43.3686 89.8158 43.0199 90.0596 42.6797C90.3035 42.3395 90.5388 42.0248 90.7656 41.7356C90.998 41.4408 91.205 41.1998 91.3865 41.0127C91.5792 40.8142 91.7805 40.6356 91.9903 40.4769C92.2001 40.3124 92.4099 40.1763 92.6197 40.0686C92.8352 39.9552 93.045 39.8702 93.2491 39.8135C93.4589 39.7511 93.6545 39.7199 93.8359 39.7199C93.9323 39.7199 94.0344 39.7397 94.1421 39.7794C94.2499 39.8191 94.3519 39.873 94.4483 39.941C94.5504 40.0091 94.6411 40.0913 94.7205 40.1877C94.8055 40.2841 94.8679 40.3918 94.9076 40.5109C95.021 40.8171 95.1032 41.1289 95.1542 41.4465C95.2109 41.764 95.2563 42.0758 95.2903 42.382C95.3187 42.6712 95.3555 42.9575 95.4009 43.241C95.4463 43.5189 95.4973 43.7684 95.554 43.9895C95.6164 44.2106 95.6816 44.3892 95.7496 44.5253C95.8176 44.6614 95.8914 44.7294 95.9707 44.7294C96.2259 44.7294 96.4952 44.6756 96.7787 44.5678C97.0679 44.4601 97.3514 44.3269 97.6292 44.1681C97.9071 44.0037 98.1736 43.8279 98.4287 43.6408C98.6839 43.448 98.9079 43.2666 99.1006 43.0965C99.7754 42.5011 100.317 42.0248 100.725 41.6676C101.133 41.3104 101.414 41.1289 101.567 41.1233C101.675 41.1233 101.757 41.1629 101.814 41.2423C101.87 41.3217 101.899 41.4266 101.899 41.557Z" fill="#13130F"/>
<path d="M105.531 36.0372C105.531 36.1336 105.508 36.2498 105.463 36.3859C105.423 36.5163 105.369 36.6552 105.301 36.8026C105.233 36.9444 105.156 37.089 105.071 37.2364C104.986 37.3781 104.898 37.5057 104.808 37.6191C104.717 37.7325 104.632 37.8261 104.552 37.8998C104.473 37.9678 104.402 38.0019 104.34 38.0019C104.255 38.0019 104.144 37.9877 104.008 37.9593C103.872 37.931 103.736 37.8885 103.6 37.8318C103.469 37.7694 103.356 37.6957 103.26 37.6106C103.163 37.5256 103.115 37.4263 103.115 37.3129C103.115 37.2279 103.126 37.1542 103.149 37.0918C103.177 37.0294 103.206 36.9671 103.234 36.9047C103.268 36.8367 103.297 36.7629 103.319 36.6836C103.348 36.6042 103.362 36.505 103.362 36.3859C103.362 36.2385 103.384 36.0995 103.43 35.9691C103.475 35.833 103.54 35.7168 103.625 35.6204C103.71 35.5184 103.813 35.439 103.932 35.3823C104.051 35.3199 104.187 35.2887 104.34 35.2887C104.414 35.2887 104.516 35.2944 104.646 35.3057C104.782 35.3114 104.915 35.3369 105.046 35.3823C105.176 35.4276 105.29 35.5013 105.386 35.6034C105.482 35.7055 105.531 35.8501 105.531 36.0372ZM109.86 43.173C109.803 43.2921 109.707 43.4452 109.57 43.6323C109.434 43.8137 109.281 44.0093 109.111 44.2191C108.941 44.4289 108.763 44.6416 108.575 44.857C108.394 45.0668 108.224 45.2568 108.065 45.4269C107.543 45.9882 107.05 46.4758 106.585 46.8898C106.126 47.3037 105.686 47.6467 105.267 47.9189C104.853 48.1911 104.459 48.3923 104.085 48.5228C103.71 48.6532 103.35 48.7184 103.005 48.7184C102.676 48.7184 102.384 48.6532 102.128 48.5228C101.879 48.398 101.669 48.2251 101.499 48.0039C101.329 47.7828 101.201 47.5248 101.116 47.23C101.031 46.9295 100.989 46.6063 100.989 46.2604C100.989 45.9882 100.997 45.6905 101.014 45.3673C101.031 45.0441 101.051 44.7238 101.074 44.4063C101.102 44.0831 101.133 43.7797 101.167 43.4962C101.201 43.2127 101.233 42.9774 101.261 42.7903C101.278 42.7052 101.289 42.6088 101.295 42.5011C101.306 42.3934 101.315 42.2856 101.32 42.1779C101.326 42.0645 101.329 41.9596 101.329 41.8632C101.335 41.7611 101.337 41.6761 101.337 41.6081C101.337 41.5343 101.366 41.4209 101.423 41.2678C101.485 41.1091 101.57 40.9503 101.678 40.7916C101.791 40.6271 101.927 40.4854 102.086 40.3663C102.245 40.2416 102.423 40.1792 102.622 40.1792C102.945 40.1792 103.197 40.2444 103.379 40.3748C103.566 40.5052 103.659 40.7434 103.659 41.0892C103.659 41.1573 103.64 41.2735 103.6 41.4379C103.566 41.5967 103.52 41.7895 103.464 42.0163C103.407 42.2431 103.345 42.4954 103.277 42.7733C103.214 43.0454 103.155 43.3318 103.098 43.6323C103.041 43.9328 102.993 44.239 102.953 44.5508C102.919 44.857 102.902 45.1547 102.902 45.4439C102.902 45.6423 102.914 45.8266 102.936 45.9967C102.959 46.1668 102.99 46.3142 103.03 46.439C103.07 46.5581 103.115 46.6516 103.166 46.7197C103.223 46.7877 103.28 46.8217 103.336 46.8217C103.563 46.8217 103.795 46.7849 104.034 46.7112C104.272 46.6318 104.535 46.4929 104.825 46.2944C105.119 46.0959 105.454 45.8238 105.828 45.4779C106.202 45.1264 106.639 44.6784 107.138 44.1341C107.314 43.947 107.473 43.774 107.614 43.6153C107.762 43.4565 107.906 43.2977 108.048 43.139C108.195 42.9802 108.346 42.8129 108.499 42.6372C108.658 42.4614 108.833 42.2601 109.026 42.0333C109.072 41.9709 109.137 41.9256 109.222 41.8972C109.307 41.8632 109.395 41.8462 109.485 41.8462C109.548 41.8462 109.613 41.8575 109.681 41.8802C109.749 41.8972 109.809 41.9284 109.86 41.9738C109.916 42.0191 109.962 42.0843 109.996 42.1694C110.03 42.2488 110.047 42.3537 110.047 42.4841C110.047 42.5805 110.033 42.6882 110.004 42.8073C109.982 42.9207 109.933 43.0426 109.86 43.173Z" fill="#13130F"/>
<path d="M117.353 42.9434C117.353 43.0738 117.319 43.2382 117.251 43.4367C117.188 43.6294 117.081 43.8563 116.927 44.1171C116.774 44.3722 116.57 44.6614 116.315 44.9846C116.06 45.3078 115.742 45.6622 115.363 46.0477C115.153 46.2575 114.915 46.4673 114.648 46.6771C114.387 46.8869 114.109 47.074 113.815 47.2385C113.52 47.3972 113.214 47.5276 112.896 47.6297C112.584 47.7318 112.272 47.7828 111.96 47.7828C111.541 47.7828 111.147 47.7091 110.778 47.5617C110.415 47.4142 110.098 47.1903 109.826 46.8898C109.553 46.5836 109.338 46.2008 109.179 45.7416C109.026 45.2823 108.95 44.7436 108.95 44.1256C108.95 43.723 108.969 43.3062 109.009 42.8753C109.049 42.4387 109.097 41.9993 109.154 41.557C109.216 41.1148 109.284 40.6782 109.358 40.2472C109.437 39.8106 109.514 39.3939 109.588 38.997C109.639 38.7248 109.681 38.4838 109.715 38.274C109.749 38.0642 109.78 37.8544 109.809 37.6446C109.843 37.4348 109.88 37.2109 109.919 36.9727C109.959 36.7289 110.007 36.4426 110.064 36.1137C110.092 35.9549 110.14 35.8047 110.208 35.6629C110.276 35.5155 110.361 35.3879 110.464 35.2802C110.571 35.1668 110.696 35.0789 110.838 35.0165C110.98 34.9485 111.135 34.9145 111.306 34.9145C111.725 34.9145 112.031 35.1101 112.224 35.5013L112.131 35.9861C112.08 36.2583 112.011 36.5787 111.926 36.9472C111.847 37.3101 111.759 37.707 111.663 38.1379C111.572 38.5689 111.478 39.0225 111.382 39.4988C111.291 39.9694 111.206 40.4485 111.127 40.9361C111.053 41.4238 110.991 41.9086 110.94 42.3905C110.894 42.8725 110.872 43.3374 110.872 43.7854C110.872 44.1256 110.894 44.4346 110.94 44.7124C110.991 44.9903 111.07 45.2284 111.178 45.4269C111.286 45.6197 111.425 45.7699 111.595 45.8776C111.765 45.9854 111.969 46.0392 112.207 46.0392C112.445 46.0392 112.692 45.991 112.947 45.8947C113.202 45.7926 113.457 45.6622 113.713 45.5034C113.973 45.3447 114.226 45.1632 114.469 44.9591C114.719 44.755 114.951 44.5508 115.167 44.3467C115.382 44.1369 115.575 43.9356 115.745 43.7428C115.915 43.5444 116.054 43.3743 116.162 43.2325C116.213 43.1645 116.267 43.0936 116.324 43.0199C116.386 42.9405 116.454 42.8668 116.528 42.7988C116.607 42.7307 116.689 42.674 116.774 42.6287C116.865 42.5833 116.961 42.5606 117.064 42.5606C117.143 42.5606 117.211 42.5947 117.268 42.6627C117.324 42.7251 117.353 42.8186 117.353 42.9434Z" fill="#13130F"/>
<path d="M130.144 41.3529C130.144 41.4153 130.108 41.5343 130.034 41.7101C129.96 41.8802 129.858 42.0872 129.728 42.331C129.603 42.5691 129.45 42.8328 129.268 43.122C129.093 43.4055 128.9 43.6947 128.69 43.9895C128.48 44.2843 128.256 44.5735 128.018 44.857C127.78 45.1349 127.539 45.3843 127.295 45.6055C126.938 45.9287 126.564 46.1952 126.173 46.405C125.787 46.6091 125.399 46.7112 125.007 46.7112C124.718 46.7112 124.438 46.6431 124.165 46.507C123.899 46.3709 123.655 46.1782 123.434 45.9287C123.218 45.6735 123.034 45.3702 122.881 45.0186C122.734 44.6614 122.632 44.2617 122.575 43.8194C122.45 44.0292 122.289 44.2588 122.09 44.5083C121.897 44.7521 121.688 44.9959 121.461 45.2398C121.234 45.4836 121.001 45.716 120.763 45.9372C120.531 46.1583 120.313 46.3454 120.108 46.4985C119.921 46.6346 119.717 46.7679 119.496 46.8983C119.281 47.0287 119.059 47.1421 118.833 47.2385C118.611 47.3349 118.396 47.4142 118.186 47.4766C117.976 47.5333 117.789 47.5617 117.625 47.5617C117.33 47.5617 117.078 47.5106 116.868 47.4086C116.664 47.3008 116.494 47.1619 116.358 46.9918C116.227 46.8217 116.131 46.6289 116.068 46.4135C116.012 46.198 115.983 45.9769 115.983 45.7501C115.983 45.4382 116.032 45.0838 116.128 44.6869C116.224 44.2843 116.355 43.8733 116.519 43.4537C116.689 43.0341 116.888 42.6258 117.115 42.2289C117.341 41.8264 117.585 41.4691 117.846 41.1573C118.186 40.7547 118.515 40.4117 118.833 40.1282C119.15 39.839 119.465 39.6037 119.777 39.4222C120.089 39.2408 120.403 39.1075 120.721 39.0225C121.038 38.9374 121.361 38.8949 121.69 38.8949C121.911 38.8949 122.121 38.9488 122.32 39.0565C122.518 39.1586 122.671 39.3003 122.779 39.4818C122.83 39.2436 122.884 38.9856 122.941 38.7078C122.997 38.4243 123.051 38.1436 123.102 37.8658C123.159 37.5823 123.21 37.3129 123.255 37.0578C123.301 36.8026 123.338 36.5815 123.366 36.3944C123.4 36.1619 123.434 35.9266 123.468 35.6885C123.508 35.4446 123.55 35.2178 123.596 35.008C123.641 34.7926 123.692 34.6026 123.749 34.4382C123.805 34.2738 123.871 34.149 123.944 34.064C123.99 34.0129 124.049 33.9647 124.123 33.9194C124.197 33.8683 124.273 33.8258 124.352 33.7918C124.438 33.7521 124.52 33.7209 124.599 33.6982C124.679 33.6756 124.747 33.6642 124.803 33.6642C124.956 33.6642 125.084 33.7039 125.186 33.7833C125.288 33.857 125.367 33.9562 125.424 34.081C125.481 34.2057 125.521 34.3475 125.543 34.5062C125.566 34.6593 125.577 34.8153 125.577 34.974C125.577 35.0137 125.566 35.1073 125.543 35.2547C125.521 35.3964 125.489 35.558 125.45 35.7395C125.416 35.9153 125.376 36.0967 125.331 36.2838C125.291 36.4653 125.248 36.6184 125.203 36.7431C125.09 37.072 124.973 37.483 124.854 37.9763C124.735 38.4696 124.625 38.9913 124.523 39.5413C124.426 40.0913 124.347 40.6441 124.284 41.1998C124.222 41.7555 124.191 42.2629 124.191 42.7222C124.191 43.0227 124.219 43.3119 124.276 43.5898C124.333 43.8676 124.409 44.1142 124.506 44.3297C124.602 44.5395 124.713 44.7096 124.837 44.84C124.968 44.9648 125.104 45.0271 125.246 45.0271C125.506 45.0271 125.781 44.9336 126.071 44.7465C126.365 44.5593 126.663 44.307 126.964 43.9895C127.27 43.6663 127.573 43.2977 127.874 42.8838C128.174 42.4642 128.46 42.0248 128.733 41.5655C128.806 41.4465 128.877 41.3331 128.945 41.2253C129.013 41.1119 129.087 41.0155 129.166 40.9361C129.246 40.8511 129.331 40.7859 129.422 40.7405C129.518 40.6895 129.626 40.664 129.745 40.664C129.858 40.664 129.952 40.7122 130.025 40.8086C130.105 40.905 130.144 41.0864 130.144 41.3529ZM122.337 41.2678C122.337 41.2168 122.32 41.1459 122.286 41.0552C122.252 40.9588 122.204 40.8653 122.141 40.7745C122.079 40.6838 122.005 40.6044 121.92 40.5364C121.835 40.4684 121.739 40.4343 121.631 40.4343C121.444 40.4343 121.265 40.4655 121.095 40.5279C120.925 40.5846 120.758 40.6668 120.593 40.7745C120.434 40.8766 120.276 41.0013 120.117 41.1488C119.964 41.2905 119.808 41.4465 119.649 41.6166C119.53 41.7413 119.402 41.9029 119.266 42.1014C119.13 42.2941 118.991 42.5068 118.85 42.7392C118.714 42.966 118.583 43.207 118.458 43.4622C118.334 43.7117 118.22 43.9583 118.118 44.2021C118.022 44.4403 117.945 44.6671 117.889 44.8825C117.832 45.0923 117.804 45.2738 117.804 45.4269C117.804 45.5913 117.821 45.7075 117.855 45.7756C117.894 45.8436 117.948 45.8776 118.016 45.8776C118.135 45.8776 118.263 45.8521 118.399 45.8011C118.541 45.7444 118.685 45.6707 118.833 45.58C118.986 45.4836 119.142 45.373 119.3 45.2483C119.465 45.1179 119.626 44.9789 119.785 44.8315C119.978 44.6557 120.174 44.463 120.372 44.2532C120.576 44.0434 120.772 43.8279 120.959 43.6068C121.152 43.3856 121.33 43.1645 121.495 42.9434C121.659 42.7166 121.804 42.5011 121.929 42.297C122.053 42.0928 122.152 41.9029 122.226 41.7271C122.3 41.5457 122.337 41.3926 122.337 41.2678Z" fill="#13130F"/>
<path d="M143.804 42.5266C143.804 42.606 143.775 42.7024 143.719 42.8158C143.668 42.9235 143.594 43.0511 143.498 43.1985C143.441 43.2892 143.364 43.3941 143.268 43.5132C143.177 43.6323 143.078 43.7542 142.97 43.8789C142.868 44.0037 142.766 44.1256 142.664 44.2447C142.562 44.3637 142.468 44.4658 142.383 44.5508C142.06 44.8797 141.714 45.1972 141.346 45.5034C140.983 45.8096 140.6 46.0818 140.198 46.3199C139.801 46.5581 139.39 46.7508 138.964 46.8983C138.539 47.04 138.1 47.1109 137.646 47.1109C137.255 47.1109 136.912 47.04 136.617 46.8983C136.328 46.7565 136.101 46.5297 135.937 46.2179C135.88 46.1158 135.82 45.9542 135.758 45.7331C135.701 45.5119 135.647 45.2766 135.596 45.0271C135.545 44.772 135.503 44.5225 135.469 44.2787C135.435 44.0349 135.412 43.8364 135.401 43.6833C135.395 43.5813 135.387 43.465 135.375 43.3346C135.364 43.1985 135.347 43.0709 135.324 42.9519C135.307 42.8328 135.282 42.7336 135.248 42.6542C135.219 42.5691 135.18 42.5266 135.129 42.5266C135.072 42.5266 135.018 42.5408 134.967 42.5691C134.865 42.6202 134.695 42.7534 134.457 42.9689C134.224 43.1787 133.958 43.448 133.657 43.7769C133.357 44.1001 133.039 44.4715 132.705 44.891C132.37 45.305 132.052 45.7416 131.752 46.2008C131.639 46.3709 131.522 46.5609 131.403 46.7707C131.284 46.9748 131.165 47.1846 131.046 47.4001C130.933 47.6099 130.819 47.814 130.706 48.0124C130.598 48.2109 130.499 48.3867 130.408 48.5398C130.346 48.6305 130.272 48.707 130.187 48.7694C130.102 48.8374 130.017 48.8913 129.932 48.931C129.852 48.9707 129.779 48.999 129.711 49.0161C129.643 49.0331 129.592 49.0416 129.558 49.0416C129.433 49.0416 129.314 49.0132 129.2 48.9565C129.093 48.8998 128.996 48.8261 128.911 48.7354C128.832 48.6503 128.767 48.5511 128.716 48.4377C128.67 48.3243 128.648 48.2109 128.648 48.0975C128.648 48.0351 128.656 47.9246 128.673 47.7658C128.696 47.6014 128.721 47.4171 128.75 47.213C128.784 47.0088 128.815 46.7962 128.843 46.5751C128.877 46.3539 128.906 46.1498 128.928 45.9627C128.974 45.5998 129.019 45.2029 129.064 44.772C129.115 44.341 129.161 43.9073 129.2 43.4707C129.246 43.0341 129.285 42.6088 129.319 42.1949C129.359 41.7753 129.388 41.3983 129.405 41.0637C129.41 40.956 129.419 40.8142 129.43 40.6385C129.441 40.457 129.453 40.2586 129.464 40.0431C129.481 39.822 129.495 39.5952 129.507 39.3627C129.518 39.1245 129.529 38.8921 129.541 38.6653C129.558 38.4385 129.569 38.2258 129.575 38.0274C129.586 37.8289 129.595 37.6617 129.6 37.5256C129.606 37.3668 129.614 37.2194 129.626 37.0833C129.643 36.9415 129.665 36.8026 129.694 36.6665C129.728 36.5305 129.767 36.3944 129.813 36.2583C129.864 36.1165 129.929 35.9635 130.008 35.799C130.037 35.7366 130.082 35.6686 130.145 35.5949C130.207 35.5212 130.281 35.4531 130.366 35.3908C130.456 35.3284 130.553 35.2774 130.655 35.2377C130.763 35.1923 130.87 35.1696 130.978 35.1696C131.216 35.1696 131.417 35.2547 131.582 35.4248C131.752 35.5892 131.837 35.8217 131.837 36.1222C131.837 36.2073 131.826 36.3207 131.803 36.4624C131.786 36.6042 131.763 36.7431 131.735 36.8792C131.712 37.0153 131.69 37.14 131.667 37.2534C131.65 37.3611 131.641 37.4292 131.641 37.4575C131.624 37.5369 131.602 37.6815 131.573 37.8913C131.545 38.0954 131.511 38.3392 131.471 38.6227C131.437 38.9006 131.4 39.2068 131.361 39.5413C131.321 39.8702 131.279 40.2047 131.233 40.5449C131.193 40.8794 131.154 41.2055 131.114 41.523C131.074 41.8405 131.038 42.124 131.004 42.3735C130.975 42.623 130.952 42.8271 130.935 42.9859C130.918 43.1447 130.907 43.2354 130.901 43.2581C130.884 43.3715 130.862 43.5331 130.833 43.7428C130.811 43.947 130.782 44.1596 130.748 44.3807C130.72 44.5962 130.692 44.8003 130.663 44.9931C130.641 45.1859 130.624 45.3248 130.612 45.4099C130.663 45.3361 130.729 45.2369 130.808 45.1122C130.893 44.9818 130.978 44.8514 131.063 44.7209C131.154 44.5849 131.239 44.4573 131.318 44.3382C131.398 44.2191 131.457 44.1313 131.497 44.0745C131.588 43.9385 131.692 43.7854 131.812 43.6153C131.936 43.4452 132.067 43.2722 132.203 43.0965C132.339 42.915 132.481 42.7392 132.628 42.5691C132.775 42.3934 132.917 42.2346 133.053 42.0928C133.229 41.9114 133.427 41.7243 133.649 41.5315C133.87 41.3387 134.102 41.1629 134.346 41.0042C134.59 40.8454 134.839 40.715 135.095 40.6129C135.35 40.5109 135.596 40.4599 135.834 40.4599C135.897 40.4599 135.973 40.474 136.064 40.5024C136.16 40.5307 136.254 40.5733 136.345 40.63C136.441 40.681 136.529 40.7462 136.608 40.8256C136.688 40.905 136.745 40.9957 136.779 41.0977C136.852 41.3019 136.915 41.5513 136.966 41.8462C137.017 42.1354 137.062 42.4387 137.102 42.7562C137.147 43.0681 137.192 43.38 137.238 43.6918C137.283 43.998 137.334 44.2758 137.391 44.5253C137.448 44.7691 137.513 44.9676 137.587 45.1207C137.666 45.2738 137.762 45.3503 137.876 45.3503C138.029 45.3503 138.171 45.3447 138.301 45.3333C138.437 45.322 138.567 45.3021 138.692 45.2738C138.823 45.2454 138.953 45.2086 139.083 45.1632C139.214 45.1179 139.353 45.0583 139.5 44.9846C139.812 44.8315 140.081 44.6869 140.308 44.5508C140.535 44.4148 140.748 44.273 140.946 44.1256C141.15 43.9725 141.354 43.8052 141.558 43.6238C141.768 43.4367 142.006 43.2212 142.273 42.9774C142.556 42.7166 142.803 42.5068 143.013 42.348C143.228 42.1836 143.384 42.1014 143.481 42.1014C143.549 42.1014 143.603 42.1155 143.642 42.1439C143.688 42.1722 143.722 42.2091 143.744 42.2544C143.767 42.2941 143.781 42.3395 143.787 42.3905C143.798 42.4416 143.804 42.4869 143.804 42.5266Z" fill="#13130F"/>
<path d="M153.313 43.9895C153.313 44.0632 153.25 44.1738 153.125 44.3212C153.001 44.4686 152.822 44.6132 152.59 44.755C152.357 44.8967 152.076 45.0215 151.748 45.1292C151.419 45.2369 151.047 45.2908 150.633 45.2908C150.344 45.2908 150.078 45.2653 149.834 45.2142C149.596 45.1632 149.386 45.1093 149.205 45.0526C149.029 44.9903 148.884 44.9364 148.771 44.891C148.663 44.84 148.595 44.8145 148.567 44.8145C148.533 44.8145 148.482 44.8655 148.414 44.9676C148.346 45.0697 148.266 45.2029 148.175 45.3673C148.005 45.6679 147.787 45.9655 147.521 46.2604C147.254 46.5552 146.965 46.8274 146.653 47.0769C146.341 47.3264 146.018 47.5447 145.683 47.7318C145.355 47.9189 145.04 48.0521 144.739 48.1315C144.677 48.1485 144.583 48.1655 144.459 48.1825C144.34 48.2052 144.215 48.2251 144.084 48.2421C143.954 48.2648 143.832 48.2818 143.719 48.2931C143.611 48.3045 143.534 48.3101 143.489 48.3101C143.143 48.3101 142.846 48.2307 142.596 48.072C142.352 47.9132 142.151 47.7148 141.992 47.4766C141.833 47.2385 141.717 46.9833 141.643 46.7112C141.57 46.4333 141.533 46.1753 141.533 45.9372C141.533 45.8918 141.539 45.7954 141.55 45.648C141.561 45.4949 141.581 45.3248 141.609 45.1377C141.638 44.9449 141.672 44.7493 141.712 44.5508C141.757 44.3467 141.808 44.1766 141.865 44.0405C141.978 43.791 142.131 43.4849 142.324 43.122C142.522 42.7591 142.738 42.399 142.97 42.0418C143.129 41.7923 143.347 41.5343 143.625 41.2678C143.903 41.0013 144.204 40.7604 144.527 40.5449C144.856 40.3238 145.193 40.1423 145.539 40.0006C145.89 39.8588 146.214 39.7879 146.508 39.7879C146.639 39.7879 146.752 39.8021 146.849 39.8305C146.945 39.8588 147.03 39.8957 147.104 39.941C147.178 39.9864 147.243 40.0374 147.299 40.0941C147.362 40.1508 147.418 40.2104 147.47 40.2727C147.521 40.3294 147.569 40.3805 147.614 40.4258C147.659 40.4712 147.688 40.4939 147.699 40.4939C147.92 40.5449 148.102 40.647 148.243 40.8001C148.391 40.9532 148.507 41.1318 148.592 41.3359C148.683 41.5343 148.751 41.7441 148.796 41.9653C148.847 42.1807 148.887 42.3792 148.915 42.5606C148.932 42.6797 148.981 42.8129 149.06 42.9604C149.145 43.1021 149.27 43.2382 149.434 43.3686C149.604 43.4934 149.82 43.6011 150.081 43.6918C150.347 43.7769 150.67 43.8194 151.05 43.8194C151.288 43.8194 151.504 43.8081 151.697 43.7854C151.889 43.7627 152.059 43.74 152.207 43.7173C152.36 43.689 152.488 43.6635 152.59 43.6408C152.692 43.6181 152.771 43.6068 152.828 43.6068C153.015 43.6068 153.142 43.6408 153.211 43.7088C153.279 43.7712 153.313 43.8648 153.313 43.9895ZM147.129 43.5217C147.129 43.4537 147.112 43.3771 147.078 43.2921C147.05 43.207 147.013 43.1135 146.968 43.0114C146.922 42.9037 146.874 42.7903 146.823 42.6712C146.772 42.5465 146.727 42.4132 146.687 42.2715C146.647 42.124 146.619 41.9908 146.602 41.8717C146.591 41.747 146.576 41.6392 146.559 41.5485C146.542 41.4521 146.52 41.3784 146.491 41.3274C146.463 41.2763 146.415 41.2508 146.347 41.2508C146.16 41.2508 145.953 41.3245 145.726 41.472C145.505 41.6194 145.281 41.8178 145.054 42.0673C144.827 42.3168 144.606 42.606 144.391 42.9349C144.175 43.2581 143.982 43.6011 143.812 43.964C143.648 44.3269 143.515 44.6954 143.413 45.0697C143.31 45.4382 143.259 45.7926 143.259 46.1328C143.259 46.2292 143.279 46.3256 143.319 46.422C143.364 46.5127 143.418 46.5949 143.481 46.6686C143.543 46.7367 143.611 46.7934 143.685 46.8387C143.758 46.8841 143.829 46.9068 143.897 46.9068C144.107 46.9068 144.337 46.8387 144.586 46.7026C144.836 46.5666 145.08 46.4021 145.318 46.2093C145.556 46.0109 145.777 45.8039 145.981 45.5885C146.185 45.373 146.347 45.1859 146.466 45.0271C146.653 44.7833 146.809 44.5452 146.934 44.3127C147.064 44.0745 147.129 43.8109 147.129 43.5217Z" fill="#13130F"/>
<path d="M157.37 42.9604C157.37 42.8186 157.361 42.6712 157.344 42.5181C157.333 42.365 157.304 42.2233 157.259 42.0928C157.214 41.9568 157.151 41.8405 157.072 41.7441C156.992 41.6421 156.888 41.574 156.757 41.54C156.559 41.489 156.397 41.4351 156.272 41.3784C156.148 41.316 156.048 41.2593 155.975 41.2083C155.901 41.1573 155.85 41.1148 155.822 41.0807C155.793 41.0467 155.773 41.0297 155.762 41.0297C155.717 41.0297 155.651 41.0694 155.566 41.1488C155.487 41.2225 155.396 41.3189 155.294 41.4379C155.198 41.557 155.096 41.6846 154.988 41.8207C154.886 41.9568 154.787 42.0843 154.69 42.2034C154.571 42.3508 154.458 42.4954 154.35 42.6372C154.248 42.7733 154.146 42.9178 154.044 43.0709C153.948 43.2184 153.851 43.3743 153.755 43.5387C153.658 43.7032 153.559 43.8846 153.457 44.0831C153.366 44.2645 153.298 44.4885 153.253 44.755C153.208 45.0158 153.185 45.2624 153.185 45.4949C153.185 45.5913 153.196 45.6905 153.219 45.7926C153.242 45.889 153.276 45.9769 153.321 46.0563C153.366 46.1356 153.426 46.2008 153.5 46.2519C153.573 46.3029 153.664 46.3284 153.772 46.3284C154.033 46.3284 154.251 46.3171 154.427 46.2944C154.603 46.266 154.767 46.2207 154.92 46.1583C155.073 46.0903 155.226 46.0024 155.379 45.8947C155.538 45.7813 155.728 45.6423 155.949 45.4779C156.051 45.3985 156.153 45.3078 156.255 45.2057C156.357 45.098 156.459 44.9846 156.562 44.8655C156.664 44.7408 156.763 44.6132 156.859 44.4828C156.956 44.3467 157.044 44.2163 157.123 44.0916C157.168 44.0235 157.205 43.9356 157.233 43.8279C157.267 43.7145 157.293 43.6011 157.31 43.4877C157.333 43.3743 157.347 43.2694 157.353 43.173C157.364 43.0766 157.37 43.0086 157.37 42.9689V42.9604ZM163.97 41.0467C163.97 41.1488 163.947 41.2565 163.902 41.3699C163.862 41.4833 163.805 41.5939 163.731 41.7016C163.658 41.8037 163.573 41.9001 163.476 41.9908C163.386 42.0815 163.292 42.1581 163.196 42.2204C162.991 42.3565 162.694 42.4756 162.303 42.5776C161.917 42.6797 161.449 42.7307 160.899 42.7307C160.74 42.7307 160.57 42.7194 160.389 42.6967C160.213 42.674 160.032 42.6428 159.845 42.6032C159.663 42.5635 159.482 42.5153 159.3 42.4586C159.124 42.3962 158.954 42.3282 158.79 42.2544C158.824 42.3055 158.852 42.3764 158.875 42.4671C158.898 42.5521 158.912 42.6428 158.917 42.7392C158.929 42.8356 158.934 42.9292 158.934 43.0199C158.94 43.105 158.943 43.173 158.943 43.224C158.943 43.5869 158.878 43.9498 158.747 44.3127C158.623 44.6699 158.455 45.013 158.246 45.3418C158.036 45.6707 157.798 45.9769 157.531 46.2604C157.265 46.5382 156.992 46.7792 156.715 46.9833C156.494 47.1477 156.247 47.2895 155.975 47.4086C155.708 47.5276 155.425 47.6269 155.124 47.7063C154.829 47.7856 154.523 47.8452 154.206 47.8849C153.894 47.9246 153.576 47.9444 153.253 47.9444C152.987 47.9444 152.731 47.8792 152.488 47.7488C152.244 47.6184 152.028 47.4511 151.841 47.247C151.66 47.0372 151.512 46.8019 151.399 46.541C151.291 46.2802 151.237 46.0222 151.237 45.7671C151.237 45.3135 151.297 44.8769 151.416 44.4573C151.541 44.0377 151.705 43.6323 151.909 43.241C152.113 42.8498 152.351 42.4671 152.624 42.0928C152.896 41.7129 153.182 41.3387 153.483 40.9702C153.658 40.7547 153.86 40.5449 154.087 40.3408C154.313 40.1367 154.551 39.9552 154.801 39.7964C155.056 39.632 155.311 39.5016 155.566 39.4052C155.827 39.3088 156.077 39.2606 156.315 39.2606C156.513 39.2606 156.683 39.2833 156.825 39.3287C156.973 39.374 157.106 39.4392 157.225 39.5243C157.35 39.6037 157.469 39.7029 157.582 39.822C157.696 39.941 157.815 40.0743 157.939 40.2217L158.118 40.4173C158.163 40.4627 158.285 40.5307 158.484 40.6215C158.688 40.7122 158.929 40.8029 159.207 40.8936C159.484 40.9787 159.776 41.0552 160.083 41.1233C160.389 41.1913 160.667 41.2253 160.916 41.2253C161.171 41.2253 161.412 41.2225 161.639 41.2168C161.866 41.2111 162.093 41.1913 162.32 41.1573C162.552 41.1176 162.793 41.0609 163.042 40.9872C163.298 40.9078 163.578 40.8001 163.884 40.664C163.913 40.715 163.933 40.7802 163.944 40.8596C163.961 40.939 163.97 41.0013 163.97 41.0467Z" fill="#13130F"/>
<path d="M166.844 43.6238C166.929 43.5217 167.012 43.4055 167.091 43.2751C167.17 43.1447 167.247 43.0057 167.321 42.8583C167.207 42.7846 167.136 42.6939 167.108 42.5861C167.08 42.4727 167.065 42.3622 167.065 42.2544C167.065 42.1977 167.068 42.1297 167.074 42.0503C167.08 41.9709 167.085 41.8944 167.091 41.8207C167.102 41.7413 167.111 41.6676 167.116 41.5995C167.122 41.5315 167.125 41.4776 167.125 41.4379C167.125 41.3586 167.102 41.265 167.057 41.1573C167.017 41.0495 166.966 40.9446 166.904 40.8426C166.841 40.7405 166.773 40.6555 166.7 40.5874C166.632 40.5137 166.566 40.4769 166.504 40.4769C166.447 40.4769 166.368 40.5137 166.266 40.5874C166.164 40.6611 166.048 40.7604 165.917 40.8851C165.792 41.0042 165.656 41.1459 165.509 41.3104C165.367 41.4748 165.223 41.6477 165.075 41.8292C164.933 42.0106 164.792 42.1949 164.65 42.382C164.514 42.5691 164.392 42.7477 164.284 42.9178C164.103 43.207 163.941 43.482 163.799 43.7428C163.663 43.998 163.547 44.2248 163.451 44.4233C163.292 44.7578 163.181 45.047 163.119 45.2908C163.062 45.5289 163.034 45.7444 163.034 45.9372C163.034 46.2887 163.096 46.4645 163.221 46.4645C163.334 46.4645 163.476 46.4362 163.646 46.3794C163.822 46.3171 164.038 46.2008 164.293 46.0307C164.826 45.6679 165.245 45.3305 165.552 45.0186C165.875 44.6841 166.138 44.4034 166.342 44.1766C166.552 43.9498 166.72 43.7655 166.844 43.6238ZM174.329 44.9846C174.329 45.0243 174.315 45.0867 174.286 45.1717C174.258 45.2511 174.221 45.3362 174.176 45.4269C174.136 45.5119 174.096 45.5941 174.057 45.6735C174.017 45.7529 173.983 45.8096 173.955 45.8436C173.739 46.1555 173.51 46.4503 173.266 46.7282C173.028 47.0003 172.772 47.2385 172.5 47.4426C172.228 47.6467 171.936 47.8083 171.624 47.9274C171.318 48.0408 170.986 48.0975 170.629 48.0975C170.465 48.0975 170.297 48.0635 170.127 47.9954C169.957 47.9274 169.793 47.8338 169.634 47.7148C169.475 47.5957 169.328 47.4539 169.192 47.2895C169.061 47.1251 168.948 46.9465 168.852 46.7537C168.778 46.6006 168.707 46.4248 168.639 46.2264C168.577 46.0222 168.52 45.8068 168.469 45.58C168.418 45.3475 168.378 45.1093 168.35 44.8655C168.321 44.616 168.307 44.3722 168.307 44.1341V43.8789C168.182 44.1001 168.032 44.3297 167.856 44.5678C167.686 44.806 167.502 45.0441 167.304 45.2823C167.111 45.5204 166.907 45.7529 166.691 45.9797C166.481 46.2065 166.274 46.4135 166.07 46.6006C165.503 47.1166 164.919 47.505 164.318 47.7658C163.723 48.0209 163.108 48.1485 162.473 48.1485C162.252 48.1485 162.056 48.0918 161.886 47.9784C161.721 47.865 161.585 47.7204 161.478 47.5447C161.37 47.3632 161.288 47.1676 161.231 46.9578C161.18 46.7423 161.154 46.5354 161.154 46.3369C161.154 46.0704 161.166 45.8436 161.188 45.6565C161.217 45.4637 161.254 45.3021 161.299 45.1717C161.537 44.4743 161.806 43.8137 162.107 43.19C162.407 42.5606 162.776 41.9426 163.213 41.3359C163.343 41.1544 163.488 40.9702 163.646 40.783C163.811 40.5903 163.978 40.4088 164.148 40.2387C164.324 40.0629 164.505 39.9013 164.692 39.7539C164.88 39.6065 165.064 39.4846 165.245 39.3882C165.461 39.2748 165.707 39.1784 165.985 39.099C166.263 39.0196 166.603 38.98 167.006 38.98C167.182 38.98 167.346 39.0281 167.499 39.1245C167.652 39.2153 167.786 39.3372 167.899 39.4903C168.018 39.6377 168.117 39.8078 168.197 40.0006C168.276 40.1934 168.33 40.3918 168.358 40.5959C168.387 40.3805 168.421 40.131 168.46 39.8475C168.5 39.564 168.54 39.2635 168.579 38.9459C168.619 38.6284 168.659 38.3024 168.698 37.9678C168.738 37.6333 168.772 37.3073 168.8 36.9897C168.84 36.5475 168.886 36.1647 168.937 35.8415C168.993 35.5184 169.056 35.2972 169.124 35.1781C169.214 35.0307 169.316 34.9202 169.43 34.8464C169.543 34.7727 169.716 34.7359 169.949 34.7359C170.09 34.7359 170.221 34.7529 170.34 34.7869C170.465 34.8209 170.572 34.8691 170.663 34.9315C170.754 34.9882 170.825 35.0562 170.876 35.1356C170.927 35.2093 170.952 35.2859 170.952 35.3653C170.952 35.439 170.938 35.5524 170.91 35.7055C170.887 35.8586 170.853 36.0598 170.808 36.3093C170.762 36.5588 170.706 36.8593 170.638 37.2109C170.575 37.5624 170.502 37.9763 170.416 38.4526C170.411 38.5037 170.397 38.6142 170.374 38.7843C170.351 38.9544 170.326 39.133 170.297 39.3202C170.269 39.5073 170.241 39.6802 170.212 39.839C170.19 39.9921 170.175 40.0828 170.17 40.1111C170.107 40.5421 170.059 40.9503 170.025 41.3359C169.991 41.7158 169.974 42.0985 169.974 42.4841C169.974 43.1645 170.005 43.7542 170.068 44.2532C170.13 44.7521 170.212 45.166 170.314 45.4949C170.416 45.8181 170.53 46.0591 170.655 46.2179C170.785 46.3766 170.915 46.456 171.046 46.456C171.216 46.456 171.383 46.4362 171.548 46.3965C171.712 46.3511 171.879 46.2774 172.049 46.1753C172.22 46.0676 172.398 45.9287 172.585 45.7586C172.772 45.5885 172.977 45.3758 173.198 45.1207C173.328 44.9733 173.453 44.8457 173.572 44.738C173.697 44.6302 173.844 44.5764 174.014 44.5764C174.15 44.5764 174.235 44.6217 174.269 44.7124C174.309 44.7975 174.329 44.8882 174.329 44.9846Z" fill="#13130F"/>
<path fill-rule="evenodd" clip-rule="evenodd" d="M21.6527 42.7158C23.7122 43.3964 24.4652 43.7503 24.6466 45.5738C23.694 51.5711 27.205 51.7162 29.709 50.1739C32.3674 48.3232 32.2221 44.8942 38.8272 46.9904C42.6104 48.696 50.1498 46.0742 42.583 37.6546L45.795 36.1034C48.2446 34.9419 46.53 32.6649 52.4906 34.4159C53.9605 35.0146 61.2547 34.9601 57.2264 28.0467C55.775 26.0779 55.5754 27.1303 57.6622 22.7119C58.4152 21.251 58.7595 19.1918 56.8181 18.684C55.4061 14.992 53.064 14.5804 55.7838 11.8518C57.208 9.86489 58.1151 6.32639 52.7895 7.85069C50.1857 8.37696 48.5074 7.84181 47.1014 6.00012C45.7722 4.42113 44.7013 3.428 41.6712 3.80925C40.0248 4.23117 39.8072 4.85723 37.9566 3.03358C35.3935 0.270748 34.7086 3.06078 33.4929 3.85006C32.3543 4.16775 32.1136 3.30101 30.6892 3.65965C29.6549 3.96832 28.0221 4.1948 26.9603 2.70687C22.5509 -1.48505 21.2444 3.22413 20.9177 4.33982L20.5911 6.54444C17.67 7.22476 18.2867 8.61305 17.1345 9.64743C12.7525 6.9798 11.9359 12.424 12.2351 13.567L9.86712 15.2001C4.66861 15.2092 5.24028 18.5661 5.13133 20.9433C-1.64603 23.7648 1.18481 28.1653 4.64141 28.1836C5.85718 29.8529 5.71216 31.087 5.26733 32.2119C1.03949 36.0132 3.20789 38.3179 5.48524 38.7169C7.92106 38.9257 8.08471 40.0187 8.09816 41.5478C8.00739 44.9863 9.94458 45.6896 12.7933 43.6978L15.2294 41.2755L21.6527 42.7158Z" fill="#13130F"/>
<path d="M21.6527 42.7158C23.7122 43.3964 24.4652 43.7503 24.6466 45.5738C23.694 51.5711 27.205 51.7162 29.709 50.1739C32.3674 48.3232 32.2221 44.8942 38.8272 46.9904C42.6104 48.696 50.1498 46.0742 42.583 37.6546L45.795 36.1034C48.2446 34.9419 46.53 32.6649 52.4906 34.4159C53.9605 35.0146 61.2547 34.9601 57.2264 28.0467C55.775 26.0779 55.5754 27.1303 57.6622 22.7119C58.4152 21.251 58.7595 19.1918 56.8181 18.684C55.4061 14.992 53.064 14.5804 55.7838 11.8518C57.208 9.86489 58.1151 6.32639 52.7895 7.85068C50.1857 8.37696 48.5074 7.84181 47.1014 6.00012C45.7722 4.42113 44.7013 3.428 41.6712 3.80925C40.0248 4.23117 39.8072 4.85723 37.9566 3.03358C35.3935 0.27075 34.7086 3.06078 33.4929 3.85006C32.3543 4.16775 32.1136 3.30101 30.6892 3.65965C29.6549 3.96832 28.0221 4.1948 26.9603 2.70687C22.5509 -1.48505 21.2444 3.22413 20.9177 4.33982L20.5911 6.54444C17.67 7.22476 18.2867 8.61305 17.1345 9.64743C12.7525 6.9798 11.9359 12.424 12.2351 13.567L9.86712 15.2001C4.66861 15.2092 5.24028 18.5661 5.13133 20.9433C-1.64603 23.7648 1.18481 28.1653 4.64141 28.1836C5.85718 29.8529 5.71216 31.087 5.26733 32.2119C1.03949 36.0132 3.20789 38.3179 5.48524 38.7169C7.92106 38.9257 8.08471 40.0187 8.09816 41.5478C8.00739 44.9863 9.94458 45.6896 12.7933 43.6978L15.2294 41.2755L21.6527 42.7158Z" stroke="#A2D9F7" stroke-width="0.756" stroke-miterlimit="22.926"/>
<path fill-rule="evenodd" clip-rule="evenodd" d="M16.1034 21.2005C15.451 21.9129 14.4392 21.8706 14.4811 20.7458L14.4098 18.9842C14.3837 18.4471 14.1266 18.1161 13.452 17.9117L11.4742 17.5211C10.5921 17.3475 10.268 16.6195 11.1999 16.1072C12.0757 15.6637 12.9518 15.2204 13.8277 14.7769C14.3513 14.5161 14.7062 14.2651 14.703 13.6243C14.7232 12.9388 14.7525 12.2086 14.7104 11.5324C14.7049 11.0458 14.8501 10.4605 15.6065 10.9849L17.9049 13.2075C18.4468 13.6024 19.0318 13.6587 19.6868 13.5635L21.4457 12.7982C22.3519 12.4642 22.9248 13.1379 22.5187 13.7808L21.2364 15.4429C20.4427 16.3102 20.8129 16.7624 21.1743 17.2591L22.5174 18.8548C22.7907 19.53 22.3324 19.835 21.6494 19.7137L20.1438 19.4543C18.9345 19.143 18.4381 18.9703 17.5628 19.5295L16.1034 21.2005Z" fill="#FFED00"/>
<path d="M16.1034 21.2005C15.451 21.9129 14.4392 21.8706 14.4811 20.7458L14.4098 18.9842C14.3837 18.4471 14.1266 18.1161 13.452 17.9117L11.4742 17.5211C10.5921 17.3475 10.268 16.6195 11.1999 16.1072C12.0757 15.6637 12.9518 15.2204 13.8277 14.7769C14.3513 14.5161 14.7062 14.2651 14.703 13.6243C14.7232 12.9388 14.7525 12.2086 14.7104 11.5324C14.7049 11.0458 14.8501 10.4605 15.6065 10.9849L17.9049 13.2075C18.4468 13.6024 19.0318 13.6587 19.6868 13.5635L21.4457 12.7982C22.3519 12.4642 22.9248 13.1379 22.5187 13.7808L21.2364 15.4429C20.4427 16.3102 20.8129 16.7624 21.1743 17.2591L22.5174 18.8548C22.7907 19.53 22.3324 19.835 21.6494 19.7137L20.1438 19.4543C18.9345 19.143 18.4381 18.9703 17.5628 19.5295L16.1034 21.2005Z" stroke="white" stroke-width="2" stroke-miterlimit="22.926"/>
<path fill-rule="evenodd" clip-rule="evenodd" d="M23.489 6.62441C23.4144 5.71066 23.34 4.79676 23.2654 3.88287C23.2116 3.41217 23.5357 2.81508 24.2584 3.35141L26.6921 5.60333C27.3285 6.09532 27.9091 6.30746 29.2379 6.00204C30.0445 5.84105 30.8509 5.68021 31.6575 5.51922C32.322 5.48226 32.2731 5.95532 31.9934 6.33067C31.4992 7.08136 31.005 7.8319 30.5108 8.58274C30.0281 9.24709 30.0421 9.69473 30.4686 10.2194L31.9094 12.1501C32.3103 12.7726 31.9768 13.0873 31.3498 13.0313L28.4407 12.4298C27.5313 12.1663 27.1118 12.2527 26.7622 12.5418L24.7061 14.556C23.7968 15.371 23.2188 14.9229 23.2305 14.3041L23.3214 12.3878C23.2793 11.7234 23.0417 11.1151 22.2302 10.8354L19.7545 10.458C18.8314 10.2855 18.6917 9.35752 19.7966 8.93325C20.813 8.46225 21.8293 8.04034 22.8458 7.5695C23.2278 7.38959 23.5266 7.17493 23.489 6.62441Z" fill="#FFA910"/>
<path d="M23.489 6.62441C23.4144 5.71066 23.34 4.79676 23.2654 3.88287C23.2116 3.41217 23.5357 2.81508 24.2584 3.35141L26.6921 5.60333C27.3285 6.09532 27.9091 6.30746 29.2379 6.00204C30.0445 5.84105 30.8509 5.68021 31.6575 5.51922C32.322 5.48226 32.2731 5.95532 31.9934 6.33067C31.4992 7.08136 31.005 7.8319 30.5108 8.58274C30.0281 9.24709 30.0421 9.69473 30.4686 10.2194L31.9094 12.1501C32.3103 12.7726 31.9768 13.0873 31.3498 13.0313L28.4407 12.4298C27.5313 12.1663 27.1118 12.2527 26.7622 12.5418L24.7061 14.556C23.7968 15.371 23.2188 14.9229 23.2305 14.3041L23.3214 12.3878C23.2793 11.7234 23.0417 11.1151 22.2302 10.8354L19.7545 10.458C18.8314 10.2855 18.6917 9.35752 19.7966 8.93325C20.813 8.46225 21.8293 8.04034 22.8458 7.5695C23.2278 7.38959 23.5266 7.17493 23.489 6.62441Z" stroke="white" stroke-width="2" stroke-miterlimit="22.926"/>
<path fill-rule="evenodd" clip-rule="evenodd" d="M36.3908 12.4201C35.8673 12.9918 35.0553 12.958 35.0889 12.0553L35.0317 10.6413C35.0107 10.2104 34.8043 9.94455 34.2629 9.7806L32.6754 9.46705C31.9675 9.3278 31.7074 8.74342 32.4554 8.33215C33.1583 7.97646 33.8614 7.62048 34.5644 7.26465C34.9848 7.05532 35.2694 6.85383 35.2669 6.33937C35.2831 5.78929 35.3065 5.20329 35.2729 4.6606C35.2685 4.27017 35.385 3.80021 35.9921 4.22109L37.8368 6.00513C38.2717 6.32178 38.7412 6.36717 39.267 6.29074L40.6785 5.67635C41.406 5.40818 41.8656 5.9491 41.5398 6.46503L40.5106 7.79892C39.8737 8.49521 40.1707 8.85813 40.4608 9.25669L41.5388 10.5375C41.7581 11.0792 41.3903 11.3241 40.8422 11.227L39.6337 11.0187C38.6631 10.7687 38.2647 10.6302 37.5621 11.079L36.3908 12.4201Z" fill="#FFED00"/>
<path d="M36.3908 12.4201C35.8673 12.9918 35.0553 12.958 35.0889 12.0553L35.0317 10.6413C35.0107 10.2104 34.8043 9.94455 34.2629 9.7806L32.6754 9.46705C31.9675 9.3278 31.7074 8.74342 32.4554 8.33215C33.1583 7.97646 33.8614 7.62048 34.5644 7.26465C34.9848 7.05532 35.2694 6.85383 35.2669 6.33937C35.2831 5.78929 35.3065 5.20329 35.2729 4.6606C35.2685 4.27017 35.385 3.80021 35.9921 4.22109L37.8368 6.00513C38.2717 6.32178 38.7412 6.36717 39.267 6.29074L40.6785 5.67635C41.406 5.40818 41.8656 5.9491 41.5398 6.46503L40.5106 7.79892C39.8737 8.49521 40.1707 8.85813 40.4608 9.25669L41.5388 10.5375C41.7581 11.0792 41.3903 11.3241 40.8422 11.227L39.6337 11.0187C38.6631 10.7687 38.2647 10.6302 37.5621 11.079L36.3908 12.4201Z" stroke="white" stroke-width="2" stroke-miterlimit="22.926"/>
<path d="M27.1193 11.928C16.8476 15.8409 10.5045 24.2206 12.9517 30.6451C15.3987 37.0697 25.7094 39.1057 35.9812 35.1932C46.2529 31.2802 52.596 22.9003 50.1488 16.4757C48.5445 12.2638 43.5608 9.93829 37.4239 9.93829C34.1998 9.93829 30.6572 10.5803 27.1193 11.928Z" fill="url(#paint0_linear_614_4694)"/>
<path d="M27.1213 11.9281C37.3931 8.01526 47.7037 10.0512 50.1509 16.4757C52.5981 22.9004 46.2549 31.2801 35.9831 35.1931C25.7115 39.1056 15.4008 37.0698 12.9536 30.6452C10.5065 24.2207 16.8495 15.8409 27.1213 11.9281Z" stroke="#393185" stroke-width="1.5" stroke-miterlimit="22.926"/>
<path fill-rule="evenodd" clip-rule="evenodd" d="M43.3574 10.9203C43.2566 9.6844 43.1557 8.44838 43.0548 7.21251C42.9821 6.5755 43.4206 5.76819 44.3979 6.49316L47.6897 9.53938C48.5508 10.2045 49.3356 10.4916 51.1331 10.0785C52.2238 9.86091 53.3148 9.64331 54.406 9.4257C55.3045 9.37544 55.2384 10.0154 54.8598 10.5231C54.1916 11.5384 53.523 12.5537 52.8545 13.569C52.2019 14.4675 52.2209 15.0732 52.7977 15.7826L54.7463 18.3941C55.2887 19.2358 54.8376 19.6617 53.9895 19.586L50.0545 18.7725C48.825 18.4162 48.2575 18.5329 47.7844 18.9239L45.0034 21.6481C43.774 22.7507 42.9919 22.1444 43.0075 21.3077L43.1305 18.7156C43.0738 17.8168 42.7524 16.9942 41.6549 16.6158L38.3065 16.1053C37.058 15.8722 36.8688 14.617 38.3631 14.0432C39.7379 13.4064 41.1128 12.8354 42.4873 12.1986C43.0043 11.9554 43.4082 11.6651 43.3574 10.9203Z" fill="#FFA910"/>
<path d="M43.3574 10.9203C43.2566 9.6844 43.1557 8.44838 43.0548 7.21251C42.9821 6.5755 43.4206 5.76819 44.3979 6.49316L47.6897 9.53938C48.5508 10.2045 49.3356 10.4916 51.1331 10.0785C52.2238 9.86091 53.3148 9.64331 54.406 9.4257C55.3045 9.37544 55.2384 10.0154 54.8598 10.5231C54.1916 11.5384 53.523 12.5537 52.8545 13.569C52.2019 14.4675 52.2209 15.0732 52.7977 15.7826L54.7463 18.3941C55.2887 19.2358 54.8376 19.6617 53.9895 19.586L50.0545 18.7725C48.825 18.4162 48.2575 18.5329 47.7844 18.9239L45.0034 21.6481C43.774 22.7507 42.9919 22.1444 43.0075 21.3077L43.1305 18.7156C43.0738 17.8168 42.7524 16.9942 41.6549 16.6158L38.3065 16.1053C37.058 15.8722 36.8688 14.617 38.3631 14.0432C39.7379 13.4064 41.1128 12.8354 42.4873 12.1986C43.0043 11.9554 43.4082 11.6651 43.3574 10.9203Z" stroke="white" stroke-width="2" stroke-miterlimit="22.926"/>
<path fill-rule="evenodd" clip-rule="evenodd" d="M12.7473 42.1649C11.7446 43.2489 10.1978 43.1765 10.2704 41.4571L10.1752 38.7631C10.139 37.9421 9.74842 37.434 8.71892 37.1163L5.69782 36.5038C4.35034 36.2315 3.86057 35.1158 5.28936 34.34C6.63183 33.6685 7.97443 32.9977 9.31704 32.3261C10.1201 31.9315 10.6644 31.5504 10.6644 30.5706C10.7006 29.5226 10.7507 28.4068 10.6917 27.3724C10.6871 26.6285 10.9136 25.7347 12.0661 26.5425L15.5631 29.9578C16.3887 30.5657 17.2824 30.6566 18.2851 30.516L20.9798 29.3594C22.3678 28.8556 23.2387 29.8901 22.6127 30.8698L20.6395 33.4014C19.4193 34.7214 19.9819 35.4153 20.5307 36.1776L22.5718 38.6279C22.9847 39.6619 22.2815 40.125 21.2381 39.9344L18.9381 39.5259C17.0917 39.0406 16.3339 38.773 14.9914 39.6211L12.7473 42.1649Z" fill="#FFED00"/>
<path d="M12.7473 42.1649C11.7446 43.2489 10.1978 43.1765 10.2704 41.4571L10.1752 38.7631C10.139 37.9421 9.74842 37.434 8.71892 37.1163L5.69782 36.5038C4.35034 36.2315 3.86057 35.1158 5.28936 34.34C6.63183 33.6685 7.97443 32.9977 9.31704 32.3261C10.1201 31.9315 10.6644 31.5504 10.6644 30.5706C10.7006 29.5226 10.7507 28.4068 10.6917 27.3724C10.6871 26.6285 10.9136 25.7347 12.0661 26.5425L15.5631 29.9578C16.3887 30.5657 17.2824 30.6566 18.2851 30.516L20.9798 29.3594C22.3678 28.8556 23.2387 29.8901 22.6127 30.8698L20.6395 33.4014C19.4193 34.7214 19.9819 35.4153 20.5307 36.1776L22.5718 38.6279C22.9847 39.6619 22.2815 40.125 21.2381 39.9344L18.9381 39.5259C17.0917 39.0406 16.3339 38.773 14.9914 39.6211L12.7473 42.1649Z" stroke="white" stroke-width="2" stroke-miterlimit="22.926"/>
<path fill-rule="evenodd" clip-rule="evenodd" d="M46.1156 34.3444C45.0649 35.4919 43.4348 35.4238 43.5022 33.6119L43.3878 30.7742C43.3452 29.9092 42.931 29.376 41.8446 29.0467L38.6585 28.4174C37.2375 28.1379 36.7153 26.9647 38.2168 26.1398C39.6275 25.4253 41.0386 24.7111 42.4494 23.9968C43.2933 23.5767 43.865 23.172 43.8598 22.1399C43.8923 21.0356 43.9394 19.8594 43.8718 18.7702C43.8628 17.9864 44.0969 17.0435 45.3152 17.8884L49.0177 21.4686C49.8906 22.1044 50.8329 22.1955 51.8883 22.042L54.7215 20.8091C56.1813 20.271 57.1042 21.3565 56.4499 22.3919L54.3843 25.0695C53.1057 26.4669 53.702 27.1948 54.2843 27.9952L56.4478 30.5657C56.8884 31.6532 56.15 32.1447 55.0495 31.9496L52.6242 31.5313C50.6762 31.0299 49.8766 30.7518 48.4664 31.6527L46.1156 34.3444Z" fill="#FFED00"/>
<path d="M46.1156 34.3444C45.0649 35.4919 43.4348 35.4238 43.5022 33.6119L43.3878 30.7742C43.3452 29.9092 42.931 29.376 41.8446 29.0467L38.6585 28.4174C37.2375 28.1379 36.7153 26.9647 38.2168 26.1398C39.6275 25.4253 41.0386 24.7111 42.4494 23.9968C43.2933 23.5767 43.865 23.172 43.8598 22.1399C43.8923 21.0356 43.9394 19.8594 43.8718 18.7702C43.8628 17.9864 44.0969 17.0435 45.3152 17.8884L49.0177 21.4686C49.8906 22.1044 50.8329 22.1955 51.8883 22.042L54.7215 20.8091C56.1813 20.271 57.1042 21.3565 56.4499 22.3919L54.3843 25.0695C53.1057 26.4669 53.702 27.1948 54.2843 27.9952L56.4478 30.5657C56.8884 31.6532 56.15 32.1447 55.0495 31.9496L52.6242 31.5313C50.6762 31.0299 49.8766 30.7518 48.4664 31.6527L46.1156 34.3444Z" stroke="white" stroke-width="2" stroke-miterlimit="22.926"/>
<path fill-rule="evenodd" clip-rule="evenodd" d="M8.0302 21.4312C7.95555 20.5174 7.88089 19.6032 7.80624 18.6895C7.75257 18.2185 8.07692 17.6217 8.79952 18.158L11.2331 20.4099C11.8697 20.9021 12.4501 21.1142 13.7788 20.8086C14.5855 20.6477 15.3921 20.487 16.1987 20.326C16.863 20.2889 16.8142 20.7621 16.5342 21.1374C16.04 21.888 15.5458 22.6387 15.0516 23.3892C14.5692 24.0538 14.5831 24.5013 15.0098 25.0258L16.4504 26.9567C16.8513 27.579 16.5181 27.8939 15.8909 27.838L12.9815 27.2364C12.0724 26.9729 11.6528 27.0594 11.3031 27.3483L9.24701 29.3626C8.33799 30.1778 7.75982 29.7294 7.77135 29.1109L7.86227 27.1945C7.82013 26.53 7.58257 25.9217 6.77127 25.642L4.29567 25.2644C3.37261 25.0921 3.23262 24.1643 4.33751 23.7399C5.354 23.2689 6.37035 22.8471 7.38669 22.3761C7.76898 22.1962 8.06746 21.9815 8.0302 21.4312Z" fill="#FFA910"/>
<path d="M8.0302 21.4312C7.95555 20.5174 7.88089 19.6032 7.80624 18.6895C7.75257 18.2185 8.07692 17.6217 8.79952 18.158L11.2331 20.4099C11.8697 20.9021 12.4501 21.1142 13.7788 20.8086C14.5855 20.6477 15.3921 20.487 16.1987 20.326C16.863 20.2889 16.8142 20.7621 16.5342 21.1374C16.04 21.888 15.5458 22.6387 15.0516 23.3892C14.5692 24.0538 14.5831 24.5013 15.0098 25.0258L16.4504 26.9567C16.8513 27.579 16.5181 27.8939 15.8909 27.838L12.9815 27.2364C12.0724 26.9729 11.6528 27.0594 11.3031 27.3483L9.24701 29.3626C8.33799 30.1778 7.75982 29.7294 7.77135 29.1109L7.86227 27.1945C7.82013 26.53 7.58257 25.9217 6.77127 25.642L4.29567 25.2644C3.37261 25.0921 3.23262 24.1643 4.33751 23.7399C5.354 23.2689 6.37035 22.8471 7.38669 22.3761C7.76898 22.1962 8.06746 21.9815 8.0302 21.4312Z" stroke="white" stroke-width="2" stroke-miterlimit="22.926"/>
<path fill-rule="evenodd" clip-rule="evenodd" d="M27.5168 32.509C27.3714 30.7306 27.2264 28.9526 27.0811 27.1742C26.9766 26.2578 27.6074 25.0965 29.0137 26.1397L33.7497 30.5222C34.9882 31.4792 36.1176 31.8923 38.7034 31.2978C40.273 30.9849 41.8426 30.6716 43.4122 30.3588C44.705 30.2864 44.6098 31.2069 44.0655 31.9375C43.1037 33.3982 42.1421 34.8588 41.1803 36.3197C40.2414 37.6125 40.2684 38.4837 41.0987 39.5044L43.9022 43.2617C44.6823 44.4729 44.0336 45.0854 42.8132 44.9764L37.152 43.806C35.3829 43.2935 34.5663 43.4613 33.886 44.0238L29.8847 47.9434C28.1158 49.5297 26.9906 48.6574 27.0133 47.4535L27.1902 43.7243C27.1083 42.4312 26.6459 41.2475 25.0672 40.7032L20.2495 39.9686C18.4532 39.6331 18.181 37.8274 20.3313 37.0019C22.3089 36.0855 24.2871 35.2645 26.2648 34.3481C27.0085 33.998 27.5896 33.5802 27.5168 32.509Z" fill="#FFA910"/>
<path d="M27.5168 32.509C27.3714 30.7306 27.2264 28.9526 27.0811 27.1742C26.9766 26.2578 27.6074 25.0965 29.0137 26.1397L33.7497 30.5222C34.9882 31.4792 36.1176 31.8923 38.7034 31.2978C40.273 30.9849 41.8426 30.6716 43.4122 30.3588C44.705 30.2864 44.6098 31.2069 44.0655 31.9375C43.1037 33.3982 42.1421 34.8588 41.1803 36.3197C40.2414 37.6125 40.2684 38.4837 41.0987 39.5044L43.9022 43.2617C44.6823 44.4729 44.0336 45.0854 42.8132 44.9764L37.152 43.806C35.3829 43.2935 34.5663 43.4613 33.886 44.0238L29.8847 47.9434C28.1158 49.5297 26.9906 48.6574 27.0133 47.4535L27.1902 43.7243C27.1083 42.4312 26.6459 41.2475 25.0672 40.7032L20.2495 39.9686C18.4532 39.6331 18.181 37.8274 20.3313 37.0019C22.3089 36.0855 24.2871 35.2645 26.2648 34.3481C27.0085 33.998 27.5896 33.5802 27.5168 32.509Z" stroke="white" stroke-width="2" stroke-miterlimit="22.926"/>
<defs>
<linearGradient id="paint0_linear_614_4694" x1="31.5278" y1="35.7473" x2="31.6058" y2="-6.59438" gradientUnits="userSpaceOnUse">
<stop stop-color="#F9AE51"/>
<stop offset="0.329965" stop-color="#F9AE51"/>
<stop offset="1" stop-color="#FFED63"/>
</linearGradient>
</defs>
</svg>
